/* XPM */
static char *png_clipart_stone_wall_brick_adobe_poster_black_brick_wall_background_texture_angle_thumbnail_removebg_preview__1_1675243464[] = {
/* columns rows colors chars-per-pixel */
"70 70 152 2 ",
"   c None",
".  c #2F2F31",
"X  c #303031",
"o  c #303032",
"O  c #313132",
"+  c #313133",
"@  c #323233",
"#  c #323234",
"$  c #333334",
"%  c #333335",
"&  c #343435",
"*  c #343436",
"=  c #353536",
"-  c #353537",
";  c #363637",
":  c #363638",
">  c #363738",
",  c #373738",
"<  c #373739",
"1  c #373839",
"2  c #383839",
"3  c #38383A",
"4  c #39393A",
"5  c #39393B",
"6  c #393A3B",
"7  c #3A3A3B",
"8  c #3A3A3C",
"9  c #3A3B3C",
"0  c #3B3B3C",
"q  c #3B3B3D",
"w  c #3B3C3D",
"e  c #3C3C3D",
"r  c #3C3C3E",
"t  c #3C3D3E",
"y  c #3D3D3E",
"u  c #3D3D3F",
"i  c #3D3E3F",
"p  c #3E3E3F",
"a  c #3E3E40",
"s  c #3E3F40",
"d  c #3F3F40",
"f  c #3F3F41",
"g  c #3F4041",
"h  c #404041",
"j  c #404042",
"k  c #404142",
"l  c #414142",
"z  c #414143",
"x  c #414243",
"c  c #424243",
"v  c #414344",
"b  c #424244",
"n  c #424344",
"m  c #434344",
"M  c #434345",
"N  c #434445",
"B  c #434446",
"V  c #444445",
"C  c #444446",
"Z  c #444546",
"A  c #454546",
"S  c #444547",
"D  c #454547",
"F  c #454647",
"G  c #464647",
"H  c #454648",
"J  c #454748",
"K  c #464648",
"L  c #464748",
"P  c #474748",
"I  c #464749",
"U  c #474749",
"Y  c #464849",
"T  c #474849",
"R  c #47484A",
"E  c #47494A",
"W  c #484849",
"Q  c #48484A",
"!  c #48494A",
"~  c #49494A",
"^  c #48494B",
"/  c #49494B",
"(  c #484A4B",
")  c #494A4B",
"_  c #4A4A4B",
"`  c #494A4C",
"'  c #494B4C",
"]  c #4A4A4C",
"[  c #4A4B4C",
"{  c #4B4B4C",
"}  c #4A4B4D",
"|  c #4B4B4D",
" . c #4A4C4D",
".. c #4B4C4D",
"X. c #4B4C4E",
"o. c #4B4D4E",
"O. c #4C4C4D",
"+. c #4C4D4E",
"@. c #4D4D4E",
"#. c #4C4D4F",
"$. c #4D4D4F",
"%. c #4C4E4F",
"&. c #4D4E4F",
"*. c #4E4E4F",
"=. c #4D4E50",
"-. c #4D4F50",
";. c #4E4E50",
":. c #4E4F50",
">. c #4F4F50",
",. c #4E4F51",
"<. c #4F4F51",
"1. c #4E5051",
"2. c #4F5051",
"3. c #4F5052",
"4. c #4F5152",
"5. c #505051",
"6. c #505152",
"7. c #515152",
"8. c #505153",
"9. c #505253",
"0. c #515253",
"q. c #525253",
"w. c #515254",
"e. c #515354",
"r. c #525254",
"t. c #525354",
"y. c #525355",
"u. c #525454",
"i. c #525455",
"p. c #535455",
"a. c #535456",
"s. c #535556",
"d. c #545556",
"f. c #545557",
"g. c #545657",
"h. c #555657",
"j. c #555658",
"k. c #555758",
"l. c #565758",
"z. c #565759",
"x. c #565859",
"c. c #575859",
"v. c #57595A",
"b. c #575A5A",
"n. c #575A5B",
"m. c #585A5B",
"M. c #595A5B",
"N. c #595B5C",
"B. c #5A5C5D",
"V. c #656667",
"C. c #7F8081",
"Z. c #B7B7B7",
/* pixels */
"                                                                                                                                            ",
"                                                                                                                                            ",
"                                                                                                                                            ",
"                                                                                                                                            ",
"                                                                                                                                            ",
"                                                                                                                                            ",
"                                                                                                                                            ",
"                                                                                                                                            ",
"                  Z.                                                                                                                        ",
"                C.K d 7 r r r c < d d d d d d c A A b c 7 c b N b A A b b b b r < c c c d d d d d d b < r d d d d d d d d                   ",
"                V.r r r r r d d < d d d b c c b b b b b 7 A / c b b b A c c b g r d d d d d d d r r d < < a d d d d d d d                   ",
"                  & # # & < # < # # < < < < & 7 7 7 7 7 7 d r 7 r r 7 r r r 7 7 & < r # < & # < # # < # . # < < < O . < &                   ",
"                  r # r c d d K c b d b b c 7 c b A A K K / K / / A r / / / P P K K A A A r r c b b c d d d d f d * & d d                   ",
"                  d < r b b b b c b b N b b r A K / / / / / / / O./ g O.O./ { / / / / / A c r A b b b b b d f f b < r b d                   ",
"                  r # & r r d d r c r c c c & r A b b A N A A A T A r A A A A A A b N c b r & c d r d d r 7 r r r # < r r                   ",
"                  & & < < r 7 < . 7 < 7 r r c r c d c c r b N A A N A N V V A h r c c d d d r r r r r & # * < < < < < < &                   ",
"                  d b b b b N A r b K K / / / O.O.O.2.2.A q.e.e.e.e.e.e.e.q.2./ N O.O.%.O.O.{ / K K K c d b b b b c b d d                   ",
"                  d d c b b b K r A / / / O.O.>.O.q.q.2.b u.u.k.a.k.k.u.u.u.u.%.A q.q.>.O.O.O./ / / K d d A N b b c d d d                   ",
"                  & & r r r r d < d d d c c c A K K T K r N T / / / K J T / / A r T L A A N c c c r r O & d r 7 < & 7 < <                   ",
"                  r # < d r c b b A b b A A w { %.=.2.q.2.=.T 4.q.>.J 2.e.2.4.2.>.>.O./ %.N g A A A b c c c r r r . & r <                   ",
"                  c < d A A T / O.=.O.O.O.2.A u.k.k.x.x.x.x.x.x.m.k./ x.x.x.x.u.u.x.x.x.g./ K q.O.O.{ / / / A A b < r b d                   ",
"                  b 7 r N A / / %.q.O.=.2.q.N u.x.x.x.n.x.x.x.x.x.u./ x.x.x.x.x.q.2.x.x.k.%./ u.q.2.O.{ / P A A b r r b d                   ",
"                  & O & 7 & 7 7 7 r w g N b r K K b N T K T T T T T b T T A / N g N N A N w 7 g w 7 0 0 2 7 2 2 7 # # < #                   ",
"                  d c c A A L / r / %.2.e.u.x.u.k.u.u.u.A 4.x.u.k.g.x.u.k.x.u.2.T g.g.u.e.q.2.%./ L / c c L A A b c d d d                   ",
"                  c b K A / O.O.V q.q.u.x.x.x.x.x.x.n.x./ x.x.x.x.x.x.x.x.x.x.u./ x.x.g.x.x.x.2.q.>.%.A A O./ / A b b d d                   ",
"                  c b b L A P O.c O.2.q.u.4.k.k.u.x.k.u./ u.u.x.g.k.u.u.e.e.k.e.T u.e.u.u.u.u.2.e.O./ c h P L N b b c c r                   ",
"                  7 & & > 7 r r 1 w r g b g d J T ( ( / T %./ %./ / A K / / / T c c A T T r w b c c c 0 7 0 0 7 < # O < #                   ",
"                  b r c / / O.2.q.u.x.x.x.x.T x.x.x.x.n.x.x.x.n.x.k.%.k.x.x.n.x.x.x.x.x.x.O.T 2.>.>.e.e.q.O.O.{ / r 7 b c                   ",
"                  A r c / / O.q.u.u.x.x.n.x.T k.x.n.m.x.x.m.x.x.m.u.%.x.x.x.N.x.x.x.m.x.x.2.T e.q.>.2.q.e.q./ / / r d A b                   ",
"                  d & 7 V A A T / %.2.2.2.2.d N 2.q.=.2.2.2.q.2.q.2.T e.e.4.2.2.%.2.>.%.2.T r %./ { T A s s m c d 7 r d r                   ",
"                  r 7 r r c c c < N N T %./ %.( %.=.%.%.A =.2.2.=.2.O.=.O.%.=.%.N / T T ' { / T T T T s r c r c c b b d d                   ",
"                  A K / O.O.O.u.N u.n.n.x.n.x.x.x.x.k.x./ x.x.N.x.x.g.u.x.x.x.2./ u.u.u.k.x.x.u.x.x.b.>.O.e.O.{ / / / / K                   ",
"                  / / O.O.O.e.u.T u.x.x.B.x.x.x.x.x.x.k.T x.x.x.x.u.n.x.n.k.u.e./ x.n.x.x.k.u.k.x.x.x.=.O.e.q.O.O.L P A A                   ",
"                  0 7 r c b A A g A T T T T L / =.=.O.=.N / %.O.=.O./ / %.=.O./ N =.=.%./ K J T / T T d h A c g r r r r r                   ",
"                  c 1 r A K %.O.4.4.2.=.2.2.c 2.u.u.u.u.u.e.q.q.u.e./ u.g.e.u.k.e.2.u.u.2.%.K 2.%.%.O.=./ / / A P 2 r c c                   ",
"                  A g A O.O.u.g.B.B.x.B.n.x.%.x.m.x.x.m.x.x.m.x.x.k.%.x.x.x.n.x.n.x.x.x.x.u.2.x.g.g.k.u.g.O.{ %./ r V A c                   ",
"                  A r A %.O.q.g.x.x.n.B.k.g./ g.x.x.x.x.x.x.x.x.k.e./ k.k.N.x.x.k.x.k.x.x.4.=.x.k.x.x.k.q.O./ / K d b A c                   ",
"                  7 & 7 h r g A N g N T %.K c / / K / / K / / %./ %./ =./ / / / K / T T / N b T T b b N c b c g d 7 7 7 &                   ",
"                  A K / %./ 2.u.T =.2.k.x.k.x.k.k.u.g.g./ e.e.k.k.k.k.k.k.k.k.e./ k.k.k.x.u.u.x.g.u.u.%./ O.O.O./ K A b b                   ",
"                  A K / O.O.u.x.T u.x.x.x.m.x.m.x.m.x.x./ k.e.x.k.u.k.k.u.k.k.k.%.x.x.n.x.n.x.x.x.m.N.=.%.q.2.O./ A K A b                   ",
"                  c A A K / O.q.A 2.u.k.u.4.k.u.u.k.u.u.T u.u.e.e.k.u.e.e.2.u.e.( e.u.k.k.u.k.k.g.u.q./ m O.O.P A A b b r                   ",
"                  7 & 0 r r c L g g K K T K b T T { %.T T %./ / / / K / %.K / ( N / / / T N N T / T L N s r h s r 7 # r <                   ",
"                  b w c O.O.>.x.k.k.x.x.n.x.=.k.x.x.b.x.x.n.x.n.n.e.%.x.m.k.k.x.x.x.n.x.x.2.O.x.x.x.x.g.q.O.O./ / r r A c                   ",
"                  b 7 c O.O.O.l.u.u.k.x.n.x.T k.B.x.x.x.n.x.n.x.N.k.%.x.x.k.m.n.x.x.N.x.x.e.%.x.m.x.l.e.2.q.O./ K d d b c                   ",
"                  d 7 7 c c V / / / O.=.=.2.w N >.%.%.>.>.%.%.>.=./ K 2.2.2.4.2.q.=.2.=.2.' N 2.2.>.{ T V c V m c 7 r r r                   ",
"                  7 r r s c c c < c A K / / %./ { %./ T g { %.%.%.O.O.O.%.=.=.O.A =.=.=.%.%.=.O.%.{ T g r V c h r r r r 7                   ",
"                  N A A / P P { r O.u.g.x.x.x.x.x.N.x.x.T x.n.x.x.x.m.x.k.u.k.e.%.N.x.x.x.B.n.x.l.q.2.L P O./ / / A K b c                   ",
"                  c A A V V / / c O.q.u.g.x.x.x.x.n.n.k.N x.n.x.x.m.x.m.x.k.u.e./ x.x.N.x.x.x.x.e.O.=.N V / / / A A b b d                   ",
"                  7 < 7 r r d d 0 s c c A m c T T T T T 1 N T T T T b N J T / T g ' ' ' ' T L L N m c > 7 r r 7 7 & < < &                   ",
"                  r # 7 d d b K A A A L / { r >.2.2.4.4.4.2.%.2.2.2.b %.2.4.u.u.4.2.2.u.4.{ L { { / L / A A c c c $ < r 7                   ",
"                  d < d A A K K / O.O.O.>.>.m e.x.n.n.x.x.x.x.x.x.k.T x.x.x.x.x.x.b.x.x.l.>./ q.O.O.O./ / / K K b 7 r b c                   ",
"                  d < d b b A K / / O./ %.%.g >.e.u.u.x.l.l.l.l.x.2.N x.x.x.l.l.g.x.k.u.e.{ L >.O.O./ P K b A b c 7 r d r                   ",
"                  < # * < < # 7 & 7 7 r 0 r < d r r w m 0 g N N N N g N A N L c r N m c c r r s r 0 0 7 2 7 7 < < & # < #                   ",
"                  f d d d c d b 7 c A A / %./ O.O.O.>.2.1 %.e.e.u.u.k.u.u.u.u.%.A q.2.O.O.{ { / / A A h r c b d b f d d d                   ",
"                  b d f b b b K 0 V P P / O.O.O.O.O.q.>.g 2.e.e.u.u.e.u.e.e.e.>.N >.2.>.O.O./ / / P P c h c c c b d d b d                   ",
"                  d d d r d d c , r A m m m A P / / { / g { { %.%.=./ / { L { T r / / T / P A A V V h 0 7 r c r r d d r 7                   ",
"                  < # # < < & < & & < < < < & r 0 0 s 0 7 r r r d w & r r r c r 2 r r r h 2 7 r r r 7 < < 7 r & < # # r <                   ",
"                  c < r c d b b A A A N A A r K P { P O./ O.O.O.%./ d / O.O.O.O.O./ / P P c d A b A A K b K b c f < < b d                   ",
"                  c < r b d c d A b c A K A 7 b / P P / / O./ / / / r / / / { / / A A K P c r A b K b b b c c d b < r b c                   ",
"                  7 # & r 7 7 r r r 7 r r r . & s r 0 0 h h c r c r & c h s c h c d r r r 7 & h r r r 7 < & < 7 r # < < <                   ",
"                  < < < < 7 < < O & < < < 7 7 7 r r 7 7 O r 7 w r 7 7 r 0 r r 0 & r r r 7 r r 7 7 7 7 # & < < 7 7 < < < <                   ",
"                                                                                                                                            ",
"                                                                                                                                            ",
"                                                                                                                                            ",
"                                                                                                                                            ",
"                                                                                                                                            ",
"                                                                                                                                            ",
"                                                                                                                                            ",
"                                                                                                                                            ",
"                                                                                                                                            "
};
