/* XPM */
static char *backround1674831730[] = {
/* columns rows colors chars-per-pixel */
"70 70 58 1 ",
"  c #01162D",
". c #02182F",
"X c #011A33",
"o c #021E3A",
"O c #02203E",
"+ c #0A233D",
"@ c #032443",
"# c #0A2644",
"$ c #0B2846",
"% c #042749",
"& c #04294D",
"* c #092B4C",
"= c #052C53",
"- c #092E53",
"; c #052F59",
": c #0B3056",
"> c #06315C",
", c #09335C",
"< c #123152",
"1 c #11375F",
"2 c #063563",
"3 c #093663",
"4 c #073867",
"5 c #0B3966",
"6 c #063768",
"7 c #07396B",
"8 c #0A3B6B",
"9 c #113A63",
"0 c #103E6C",
"q c #073E72",
"w c #0A3E71",
"e c #14416F",
"r c #074076",
"t c #0A4175",
"y c #07437B",
"u c #0A447B",
"i c #0E487F",
"p c #124373",
"a c #12497D",
"s c #094781",
"d c #0A4984",
"f c #0A4D8B",
"g c #124C84",
"h c #1A4F83",
"j c #124F89",
"k c #0B508F",
"l c #10508B",
"z c #19568F",
"x c #0B5394",
"c c #0C569A",
"v c #0C589D",
"b c #115593",
"n c #125B9D",
"m c #0D5BA2",
"M c #125EA3",
"N c #1661A5",
"B c #1A62A4",
"V c #2065A6",
/* pixels */
"                      X  XXXXXXXXX                        X           ",
"                         XXXoXXoXXX           X X                     ",
"                        XXXXXXooXX               X    X               ",
"    ..                XXXXXXoXXX X X X  X      XXXX                   ",
" .  X. .            XXoXXXXooXXXXX   XX X      X XXX XX        X      ",
"     X .            XXXXXXX#@XoXXXXXXXXXXXX XXXX X XX X X     XXX     ",
"     +              XXoXooXoooooXXX XXXXXXXXX X XX X X X              ",
"                     XXXoXXOoOOoX XXXXXXXXXXXXXX XX X            .    ",
"   ..+             XXXoooooOOOOOXXXXXXoXXXoXoXXXX XXXX X        o+    ",
"    ..             XXoOooOooooOOoXXXOXoOOooO@XXXXXXX                  ",
"                X  XoOOoooOOOOOoXoXOoXo@@ooooXXXXXXXX X   XX      .   ",
"      +          XXXXOOooOOO@@OooooOOoOOOOOOOoooXoXXXXXXXX X  X  XX   ",
"          .. ... XXXooooOOO@OOOOooooOOO@OOOOOOooooXXXXXXXXXXX XX X.   ",
"      .  .......XXXXXoooOOOOOO@OOoOo@OOO%@OOOoO@OoooXXXXXXXXXXX X Xo  ",
"       .. ..X..ooo+ooo#@@O@@O@@O@$@@@O@@@@O@%OOOOOoooXoXXoXXXXXXXX X  ",
"          X.X.Xoooo+ooOO%@@@@@O#%$@O@@@@@%@@@@@OOOOoXooooXoXXXXXXXOXXX",
"            XoooooooOO@@#@@@@@%**@@%*@%%@%**%@@@@@OOoooooooXoXXXX oX X",
"     ..   . .ooXooOOO@@O%&&=%$%*&%*%@@**-&@%%@@%@@OOOOOOOOooooXXXX XX ",
"      ... XX.ooo+$@#O@$@%*=%%%===&-%@@:,=%%%%@%%&&@OOOOOOoOOOoXX XXXXX",
"      ..  ..Xoo+#O@@@O%%%*====-:=;;&&-9h=%%%%%&&&&@@@O@@@@OOoOoXoXXXXX",
"X...  .. XXoooO@@@@@@O@@======;:,,-=-:&:*@@%&&&&&=@%%@@@@@@OOOoooXXXXX",
"XXooXXX+oooooOoO@@%@@%@%=,==;>,,3,,;-=&*%%%&=&===&&%&%%%&%%@@ooooooXoX",
"OooOoooooOOO@+O%@%@O@%@O&===,,333393,;*%=%*:==;>===&&&&&&&%@@OOOoooooX",
"OOOOO@++OO&,@Oo%=&@O@OOo@=-=12368833>-*@%%*:;;3>>;==&&=&&&&%%@OOOOOooo",
"@@@@@@%%$@==@@@%%%%@ooooO@%=>388qq85,:&%#:;;->222>>;==&&&&%%%%OOoOOOOO",
"%&%%%%:-%=-&%%@@&;-*@OOOOO@%30wwqw733=&*-9:-;>2263>;>;=&&&%%%&%@@OO@@@",
"&&&&==-======%--;>-=%#$oO@@%26wwqta87>=*=;9,,,2266332;==&&&%%&%@@@%@@O",
";;;;;:=;====;=362;--%=5@@$*=5wwwiqwwt3-;;503,;;266226>;;;&&&&&&%%@%%%%",
"2>62;;;=%==;66ww2;;-%@=@@%%=5wwgawppu823355,,,,956562>2;:==&%&%%%%%&&=",
"866>;,>=@%%2qqdw2>=**%%&&&=;wwswqp8etg83000;,;,366766663>;==&&&%%%&&&%",
"qqq>=&%@%=6qdddq3;==&&=;-=98wsswq58080550e:;;;;;36ww6866>;==&&&&&==&&%",
"ssy2&@O@=wxmmccsq>;==1;;::-58wgwww08535035;;;-==;8gtw8662;==&;&%&%;;&&",
"ddy7>%O&2kmmmmmvy2;2>>>2,*&25uj808765053,,>,,;=&;7tttw732;=-&=&%%==;&&",
"dxdy7&@&2xcvBNNBk8>22577;==,5fft5www83365353,,;%28pguy73;;-=&&&@@&&=&&",
"kkfy2&%&2dkdvNNNxt8888q7;,>>>df8538778q78832;>,&putjuu722;=&&&&@@=&&%O",
"ks87=&&=2rydkvNNxduy77rt352>;883,,527ptqq8633>;;3qsfdt7232=&&&%@@&%OoO",
"yq>=&=>526rdkxvmckjr74yfdtr5353,;;25tqdfit838636qrukdrp376=&%%@O@@@oXo",
"22>===;g86ruyfcvmxdr3,ufkkd8383:--,0aslbfttq37tdfut7873286=&%@%oOOOoX ",
">=;2==>8e27tuydvMvfy33tlxxft553---90tfMnfuttwqdxbst235,2ty;=%@ooXXooX ",
">;;>>>24>237ydxvmBku8tknBbfup5>:-;35wfMnxddfiysfduu233>>q7==&@oooX XX ",
">>>222222>33rxmxcMxyrdcmmxddp5,33,95tfccxsdfsuuyqiy3;7,;33=-&@XoO.X X ",
"=>>22222>>>3tkmkcvxfskNmvfdsq85>355wtsskffdsstuwq703;=;;;==%@@oXX X  X",
"%;226622>;=>7dxvxvcxxvMmvfdyq8533588qiyddsiapaq7375,=-;;;==%@o@OooX  X",
"&>22772>;&=;4rsxNBxxvmNNmbjgt888358wwqysisyttdp538,;=;;===&%@@%=&oXX  ",
"%;22776>=&&>268scmffvNNmmvjut8w878q7tttssiuqwt7826>;=&&&&-%%@%=-%OXX  ",
"&>>2676>&==>>57rffdxmmmNmmfyt888807wzjqttqtw767t33>;=&%&%&&*%@==@oX   ",
"=222222;&&==>34tydkNmmmmccfsqwe77807ga87qpw8626633;==&*%&&%%%@%%@oX   ",
"=2>2222=&&&=>>27rudxmmmcxffu8tw7w7q883667886232>;;;=;=&%-&%%%@@%Oo    ",
";22;2;;=&&=;;>277qsfvvxfdddrrqtqww78338383355>,>,,;==&&&&&*&@@@@oX    ",
";2;2;,;=&&;;>>>22qyfxfddsyyurttqw762223822>,,>>;2;;=&=&%&&&%%O@#oo XX ",
"2;;;;;;=&&=;;>>27qyydsyyyrrtqrtq782232,3>>>;,,>>;;,;=-&&&&&&%@@#oX    ",
";=;;;;;,&&=;>2>257ruysytpq88q888222>2;>,;;=;;-;>-=;=-&&&=&&&%@@ooX    ",
";==5==&&&&==22>2278tydt74422777823>,,,,-======&=;;=&=&&&&&&--%@ooX  X ",
"=&=;=&=%&&=;22>2227qqt7222222222233;,-;3-=&&&===&=&&&&-&&&&&&@%ooX    ",
"==%%%=%%%&=222223777qq7222222222>;3-;=;;=-&&&&&&&&-&&%%%%-=%%%OooXX   ",
"%%%@%%%%%=;>22>226667753>5,2>>>>;;;;&=&=&=&&&&%&%%&%%%&%&&*%%@@oXXX   ",
"&%@@@@@%&;9>52>222822223>3;;>;;;;;====&=&&%%%@%%%%%@%@@%%-=-$%@oXX    ",
"&&@@@@@%%=;62>>>>222223,>;==,;;==&=%%=2=;&%%@@@@%@%@@@@%%&%%-<#oooX   ",
"&&@@OOO@%==>>>>>>22222;>,;==;==&&=&=%;7==%%%@@@@@@@@%@@@@@%%@@%OOoo   ",
"&@@OOoo@@==2>>3>;>22>>>;===&=&=&&=&&=%=%&%@%*@O@@@@O@Oo@@@@@@@@oOOoX  ",
"&@OOoooO@&=,>>>>;;2>;;;===&==&=&&&&==%%%%%@%@@Oo@O@O@OO@@oo@@o#*O@OoX.",
"&OOOoXoO@%=;,;;;;=;;;;;====&=&&&&&&%%%%%%@@@O@@@OO@Oo@oOo@O@o@#$OOOoo.",
"%OoooXoO@==;,>;;=;===;===%&=&&&&&&&%%@%@@@@@OO@@oOoOOoo@OoOOOOoooOOoXX",
"@OooXXoO%&==;=;;===&===%===%&&&&%%%%%@@@@@oOOOOo@@@oooooOoOoooOo+OOOoX",
"OoXoXXoO@&===;==;=&&&=&&=&&&&&&%%@@@@@O@OO@OOOoOOoooOoooooOoooooOoOOoX",
"oXXXXXoO@&====;=;&&&%&&&&&%==%%%%@@OO@@@@O@oOOoooooooooooooOoooooooooX",
"X X XooO@&====&&&&&&%%%&%&%&&%%%%@@@OO@OOoooOOoooOooXooXOooooooooooooX",
"   XXXo@@%&&&&&%%%%%%%%%%%%@@@@%@OOOOOOoooooO&oooXooooXooXoXoX+ooXXXXX",
" X XXXoo@%%&&%%%%@%@@%%@@%@@@@@@@@OOOOoooooooooXOXooXoXXXoXoXo@XXoXXoX",
"o@  XXoo@@%%%%@@%@@@@%%@@@@@@@@O@@OOooOoooooXXoXXoXXXXXXXXXXXX#oXXXoXX"
};
