/* XPM */
static char *Screen_Shot_2023_02_01_at_10_19_05_AM1675244269[] = {
/* columns rows colors chars-per-pixel */
"70 70 81 1 ",
"  c #E7E7E7",
". c gray91",
"X c #E6E6E6",
"o c #EAEAEA",
"O c gray90",
"+ c #E9E9E9",
"@ c #E4E4E4",
"# c gray88",
"$ c #E2E2E2",
"% c gray89",
"& c #E1E1E1",
"* c gray87",
"= c #DFDFDF",
"- c #E2E2E1",
"; c #DDDDDD",
": c gainsboro",
"> c #D8D8D8",
", c gray82",
"< c #E3E3E2",
"1 c #D9D9D8",
"2 c #D5D5D4",
"3 c #D5D5D5",
"4 c LightGray",
"5 c #D3D3D2",
"6 c #D2D2D2",
"7 c gray84",
"8 c gray85",
"9 c gray86",
"0 c #DADAD9",
"q c gray83",
"w c gray80",
"e c gray79",
"r c #D8D8D7",
"t c #DADADA",
"y c #DDDDDC",
"u c #E1E1E0",
"i c #E8E8E9",
"p c #E6E6E7",
"a c #D0D0D0",
"s c #CFCFCE",
"d c #C6C6C5",
"f c #D2D2D1",
"g c #DBDBDA",
"h c #CACACA",
"j c #CECECE",
"k c #D6D6D5",
"l c #E6E6E5",
"z c #E9E9E8",
"x c #CDCDCC",
"c c #CDCDCD",
"v c #D1D1D0",
"b c #D7D7D7",
"n c #D7D7D6",
"m c #C6C6C6",
"M c #DEDEDD",
"N c #DFDFDE",
"B c #DCDCDB",
"V c gray92",
"C c #CACAC9",
"Z c #CBCBCB",
"A c #D4D4D3",
"S c gray81",
"D c #C8C8C7",
"F c #E0E0DF",
"G c #CECECD",
"H c #CCCCCB",
"J c gray77",
"K c #D0D0CF",
"L c #C5C5C5",
"P c gray73",
"I c #C7C7C6",
"U c #D0D0D1",
"Y c #C3C3C4",
"T c gray75",
"R c #C5C5C4",
"E c #C8C8C8",
"W c #DCDCDD",
"Q c gray72",
"! c #D2D2D3",
"~ c #CBCBCA",
"^ c white",
/* pixels */
" ...   ..XXXX oo.XOXO      ....++     .O@X.  XO@O#@XO. @@OO$OOXO%X XXO",
"XXOXOO$$%@&@OXOXXOX  X  .  .... XX X@%@X@X  XX$%O*$OXX%@O%%@X@%##@X@%@",
"OOOX%=*-#& O@@XOOO.... ......OOOOOXO;=%XO@:@ .@$OO XXO>$OO%OOO#:#O@*$&",
". . X@.+.++. +... ....+...+.. .OOO &:@OOO%,$OXO@%XXXXO#@   @%O.  X@&@O",
"  . XO++.+.@ +++.XXXXX      XXO%$@ $&XX  O>@OXXX<%X XO%X XX@@OOOOO&=OO",
"$&@ XXXO%%$$$;1,2:34567:=*;#&*89;:;0q5w7*9e8r9&&>>:=&&8*=#$=##=#=87>t8",
"OX ....XOO .X@%;;==%y#&;&@O  @<@**&#@$#$@OO@tuXOO%OOX@*%@%XXO@@@$*=%$#",
"O X    @Xo ..oooo+X+;X..XO.++++.t$++.++.  .i%O. O%X  .  XOX XXOOOX&$@%",
"*#&=;:=:3=&#OXXOXXOO3$OOO@OOOXX@4&XOOOOXOXp$a8O@$$@@%$&&$=OOOOOXOO@OX@",
"4r97sd6q4qfw;=#;gt*tq;:9;;;:::>>>%=9:99976hja3t>q3k9*:7639*;;;=##;8#%@",
".++ X# +o+O#X+.. @X ...OXOX  $&X++ @%.. X&2@   $#OlXOO#X  X@@@@@@%&OO@",
".+++.#X+o+ =   . $X .+.%O.. .&O.+  O%.X XX@.  %>*X.  O@X  XOOXOOXX$  X",
"OXXO=9$%$@%>*=&&#9*&*#$;*$&%X#;%%&#09#*;*t7*&&;*&$&=#*=@O@$$&OOOX@:*$@",
"OO@%=%$$9t**&%@&$&#&*;$&%%%$@%&$$&&#%&;*#=$$**&@OO%%%%%@O&:%@@%&#9:*&$",
"  +++ ooO@++ooo.o+.+@#+++.+o+..+.X.+.++++..+.XXO   OXXXXX$;XX@@@@OXXXX",
"XX. XX .#;. ..z .O  O%.+.  .. XX $X X  .   X OO   XOXX XX%= OO@XXXXXOO",
"%%@t4xj6cv:t:t76fbtt8;=899:*;ttt>>;8>9:;#9;##:b7n8;&&*:==***=$=*;80=#*",
"  .@&m7=#%$4M@&;:*##$O#4*$$$=t*N&X%3&@@@X8*OO@%9*%@XO**@OOO==$%$=;B$%&",
"..++ j%o+++b#+.io..X  O:.ooV.;.++. & +oVo*@... *$+.  =$....@XXXX X%@@@",
"XOXO%7#XXOO7* X X:$%XX$9X.. %tOXXX%>%@@@@>=@@%%;#O@%%*X  OX$%OOOX$=%%$",
"*;*;;:*:t8bqO#&#**&$@t2#&=#;9t====:bgbrqk>t8*2C0:9;$#:$&=:tb9*9:*89*;9",
"    .. . @@@ OX   ..+&=+ .. X.... $ . .  @O .X9OOOX XOXOXX;$XOOO@&%@%$",
"X  XXX++.OO +. .X&@X.&#+ . ... X O9X ..XOOX..+OXO@OOOOO@ X&@X@O@%$@%&$",
"#$$$&#M&*88N9*$&$&#$@*==**%%&%@%%&8&#*#&%%$=M99#=:B**###=$:;888:;:*&=t",
"u$$$##8#*78*Z:%&&=b;&%$t1=$=&&*8;;#;9Z7;##:ZAZ3*>df:===7>;9=:A7##=#=0;",
"X...+.$.++X bOo++o$X+..+@%+.X.O#++++ : .  OS$X ..7=OOOX&O XXX;tX@O@%:X",
"%X X@#: . X #O XX *O.+  $%.+ +O#.  .OtOXX.X:@@X  8#@OOX&@XOOO$=OX%#=b@",
"9>7t::t*;t>9:=*>;:9$&#&&#$@#;=9:****:8:9:#:8>3cSt>b74##9t*##:9886v634g",
"&&0=OX O@@$$%XO;XOOXO@@@OOX;#&=%O@@OO%$;8%$%%#>8&#=9D$@%%@@&=&&=b*O$&&",
"@X@O  O. XO OX O+     .  . 9%X@O@@@O@%O&u@OO@@XX%@%&*XO@OX@O@%%O#=%%&&",
"%%*;80=&&-$%@O$$  O$%$@OXX b;OXOXXO@O@O;:&$$;$%#F$%$*$O@O%O@%@$@&9$$%$",
":**9wZ246A68;7b=@X&8bq7qb88>9=&&=*=::=**=836ZM98SscqfSG>*:;;93a64t9b9:",
"XX +7c+ ..*#.OOOOO&&OOO9%OOXXB@    80X@OXFb@@$%$9&;9<&H*@%OX#>&$$O8b%&",
"O...3j. .+#& O XOO*$OXX:%OOOX=@X .X9:%#@O##%&&%&&@#&OX>&@@OX=9@@@@*=O$",
"aSSqJwXXXX=3#=XO%$$O@*93:==;=9;;;=##=&&&===&=$&;=$#tt*q4t#$#n7=&;:9t=*",
"36f36;@@@$yaA9%%$##%%Zc##*9:*#=9t;*%$$%$##@%$%#*&$*ej>>t9:;0St;&##;t8>",
"O@.XX@XX %:;9&@@$$#$tht$OOXXXO@$OXOX@OOO%%OO@$=:%@$%%XOOO%@&;%OO@%@%%%",
"$=$%%OOO O$$@$@@OO%#S8$8%XXX@@O@@OOXO@O%$%XO@@&;#%#%@OOOO@O##$%%%%O@@$",
"hcZwe9O@$$$&@O@;9=889$&9t&O=:=&@@@$$=**&;7=$@$##24:3qAq79bbqf67r7qnq,k",
":XXO%%##9#=9;$%$#9:@@%O*bO &#&%XOO@@&$%$$#%%%=$$::&;ty07&*==yt9B9**S5t",
";X...9>@@+.;9%&XX3qX@@X&t.OO *7@%@@@$@XXX@@O@$O@&X$%&@:bO$%$&#%%$%%49$",
":$=#;wj=*=&A,;8%%,j=-#*g8%&X #:$*=;,*@@%O%$$$$@=a;B;*#3jO%##=7=#$##389",
"8qc4jS336mK2999;9bnb7LP,9;9=:9=9xv38:9r6>;*=*98qak6647b9:nx,b>t9:01aeZ",
"XOO.OO@OX=OOXO@OOX OOIjOO%&&=&%@%&:@@%$$%@@@@O$& @&&$%%@$&*;$%&&&u=*==",
"@OOOXXX O9@OOOOOOXO@ wrOO@O% X@OO%*OXO@@@@%%&$&$X%$@@%%%%%##$&#=;==$$$",
"cac74a687Z>b>9:99g89=888:tbU>98by9a=$M=%O@%%$$=*=>$$%$%$&*88>r18bb8ttt",
"7Bt=:3,t9;9ra=#N**kg=$*g9:t,btv,t9t;&b;%@%&###:::S;==&#*77A>4c28>,2ha4",
"*%O%@%4%X.O@kXXOOO#@@OXX&@O OO#@XX X@%%OO@@%&=@O$&$$%$=;=@@%%=@@%$$>&&",
"8;#&#*w#$$&$b#&$#=t&%O$%*$@@$@&O%%%%#=@XOO$#$#%%$&&&&=**%$%$<8#=##=:&%",
"qZaqqvA>4acb7q4qGG3bt;9t7&####*###=*;99=#&*:;yt;:998t>8;bA64347va5Af5q",
"$%&$$$%$&;7%%%$&$$%%O@t*%O@$&%%@&$%=@$#&#&=#**;:;&&&&#*9::;,q&$##;;=;*",
"%@%@@O@@@3YOO@@XOOO%@@t=@%@%%@@%@@%#O@@@@@%%%$%&#%$%%%%&%@%*=%&$$&&$%$",
":&$$=**$$aT>=$@$=-$&*#t#%@@$$%@@%$==$%%%%&$$##%$=&=&$&&#&$#*==;=*;*=#&",
"GB;1jmetrAaRa:;4jf6999;:3tt8887>>63qZ377bq>tb8t88b79:90::;:97EhhZc6a4n",
"$O%@%;q@$@@;9=&$ =8%X@X$>%%&#&A;=#&#;&#$@$*:;#=&&$%$&&%&==&@&*=;**;8#&",
"#%$%$*A$$$$#:#$%@=*$%@%=k@%%%%3#@O%&8%$#&#;;##=#=&$=;;&####&&=#=*;::##",
"f7q47c5#$$#==##&#*=%=9:tj;::;te4ty*6ZN;;**9:*;*9;=*99;9>1913SS;*;t8t::",
"t88kA4=$#&&###&=*:=&*t>84=*;:9:8br8t;966=*::*t878bbtt99>7bAjKb767>t*;t",
"#;:&=**&=&$#&===$=###$3:$&&%%%%&$Ot6@%$$%##;;9tc#&*99:;*=&#bt;:::*;=*;",
";==*:&=#$#$&&##=$###&$9#$%@O%%$$$@9t%%$&$#:;;;:>&##=###==#=>::;**=*;;:",
",;;;*;9tttW=9##***;9;rZ,6SeSb317a;:**;&&#t>::=t>:9998t>3k3b38b>7b7b88b",
"=**#*;7q::;=;#=###$27>**tqea9b>eQ37bb,t*;>tbbb>t>>>9::8b7b:9bbt788890b",
"&#;t9tb,9:;**##&$=*,>**==;:#===M8t>t9;*9tt;&*=#=:*===;:*;=*:::9b9tt;:9",
"=;t8:9:;=###&#;*;:9q299*;tb*==;3a>::9:&$&*=***;99*9338=;tt;9=;t>t;;=;b",
"9tt>899;#&=&&:9;:976b73q,,G6S,xdP#****=:::*95444>343>b62q>>3Sa6q4,5A6v",
":;;*====&#*&*8:$%$&#;;;A:;*:bt>01;:=$$#:9t8>t:*##;:;;*:98998>y:=;998b1",
";;;;==#==*:;*##*:::*;;yq*::*;;*;:;;*#;t8773>;:::t>89:9::t9t:8:>899:999",
"8999:*;:*97;;*#:>t:;:t9q::3t*;yt:*#:ttb>;9:998>>9::9t9;;ttt9>3b:989*99",
"bb88>>b89:;;;::!PEKf45fSxe~64fDc6>b37tt998>8>>736a,6,ajj6,q4b>bvwhcaZI",
"3b8b888q8:*::=*9t;;9#=;:8b:**;8999t9:;;9:=;:t>bt:t9:tb7qqb>b8bq>;;8>,4"
};
