/* XPM */
static char *png_clipart_ms_pac_man_pac_man_party_graphics_pacman_pixel_text_rectangle_thumbnail_removebg_preview__1_1675244085[] = {
/* columns rows colors chars-per-pixel */
"70 70 119 2 ",
"   c None",
".  c #EB1D21",
"X  c #E91F22",
"o  c #EB1E22",
"O  c #EB1F22",
"+  c #EB1F23",
"@  c #EC1D22",
"#  c #EC1E22",
"$  c #EC1F23",
"%  c #DD2A22",
"&  c #D63023",
"*  c #D03423",
"=  c #E72122",
"-  c #E92022",
";  c #EB2023",
":  c #EB2024",
">  c #EB2124",
",  c #EB2125",
"<  c #EB2225",
"1  c #EB2226",
"2  c #EB2326",
"3  c #EB2327",
"4  c #EC2025",
"5  c #EC2125",
"6  c #EB2427",
"7  c #EB2428",
"8  c #EB2528",
"9  c #EB2529",
"0  c #EB2629",
"q  c #EB262A",
"w  c #EC2529",
"e  c #EC2629",
"r  c #EC262A",
"t  c #EC272B",
"y  c #EB282B",
"u  c #EC282B",
"i  c #EC282C",
"p  c #EC292C",
"a  c #EC292D",
"s  c #EC2A2D",
"d  c #EC2B2F",
"f  c #EB2C2F",
"g  c #EB2D2F",
"h  c #EC2C2F",
"j  c #EB2D30",
"k  c #EC2C30",
"l  c #EC2D31",
"z  c #EC2E31",
"x  c #EC2E32",
"c  c #E33531",
"v  c #EC3135",
"b  c #9D5E24",
"n  c #9C5F24",
"m  c #9D5F24",
"M  c #9E5E24",
"N  c #9E5E25",
"B  c #9E5F25",
"V  c #9F5F25",
"C  c #9F5F26",
"Z  c #BF4223",
"A  c #BA4623",
"S  c #BE4423",
"D  c #B54B23",
"F  c #B24D23",
"G  c #B34D23",
"H  c #BC4926",
"J  c #AE5427",
"K  c #A05F26",
"L  c #A25E27",
"P  c #A75C28",
"I  c #9B6024",
"U  c #9C6024",
"Y  c #9D6026",
"T  c #9F6026",
"R  c #9E6027",
"E  c #9F6027",
"W  c #9F6128",
"Q  c #A06027",
"!  c #A06028",
"~  c #A06128",
"^  c #A06129",
"/  c #A16129",
"(  c #A06229",
")  c #A1622A",
"_  c #A1632A",
"`  c #A1632B",
"'  c #A1642B",
"]  c #A1632C",
"[  c #A2632C",
"{  c #A1642C",
"}  c #A2642C",
"|  c #A3642D",
" . c #A2652E",
".. c #A3652E",
"X. c #A3652F",
"o. c #A2662F",
"O. c #A3662F",
"+. c #A4642E",
"@. c #A4652F",
"#. c #A36630",
"$. c #A36730",
"%. c #A36731",
"&. c #A46630",
"*. c #A46731",
"=. c #A56731",
"-. c #A46732",
";. c #A56732",
":. c #A56832",
">. c #A76834",
",. c #A76A36",
"<. c #A86834",
"1. c #A86835",
"2. c #A86935",
"3. c #A96937",
"4. c #A96A37",
"5. c #C14123",
"6. c #C24023",
"7. c #C04223",
"8. c #CF4430",
/* pixels */
"                                                                                                                                            ",
"                                                                                                                                            ",
"                                                                                                                                            ",
"                                                                                                                                            ",
"                                                                                                    :.Q E Q K Q K K b b b b                 ",
"                                                                                                    ;.b b b M M b b K K b L                 ",
"                                                                                                    ' b b b K K b b b b b b                 ",
"                                                                                                    / b K b b b b K b b L b                 ",
"                                                                                                    Q M M M M M b K M M M M                 ",
"                                                                                4./ Q / Q Q / Q / Q L M M M M M M M M M M M                 ",
"                                                                                @.b E b M M M M b b M M M M M M M M M M L b                 ",
"                                                                                } b b b M M M M b b M M M M M M M M M M b b                 ",
"                                                                                Q E b b K b M M K K b b b K b M b b b b b K                 ",
"                                                                                Q b K b K b M M b b b K b K b K K K b b b b                 ",
"                                                            Q / } @.' ' E b L Q Q b b b M b K K M M b K b b K b b b b L b b                 ",
"                                                            E b b b L b b b b b b Q @.:.&._ b b M M M b ' ' @.:.@.| } } @.                  ",
"                                                            E b M M M M K b b b E         &.b K M M M K                                     ",
"                                                            Q L M M M M b b K K b         | b b M M K b                                     ",
"                                                            / b M M M M b K b b b         @.K b M M M b                                     ",
"                                                    ;.@.;.;.b b M M M M M M b b b         &.b b M K b K                                     ",
"                                                  E b b b b L @.[ ;.<.4.,.;.} :.:.        $.b K M M b Q                                     ",
"                                                  L b b K b Q                             &.b b M M b Q                                     ",
"                                                  b b K b b /                             @.b K M M M Q                                     ",
"                                                  K b b b K /                             @.b b M M M Q                                     ",
"                                            :.:.;.L b b b b Q                     ;.@.:.:./ b b b b b /                                     ",
"                                          L b b b Q / / @.@.:.                  ' K b b b b b L K K b '                                     ",
"                                          / b b b '                             Q b b K b b @.                                              ",
"                                          Q b b b '                             Q K b b K b <.                                              ",
"                                        8.E E U E P c                           E b b b L b 4.                                              ",
"                            9 : . . . $ % D G G F S - - : . - h                 Q b b K b b 1.                                              ",
"                          . . . . . : : . : - - - - . . . . . : :     E U L L E b E E / Q Q ,.                                              ",
"                      t t . : . : . . . . . - . . . - . . : : . : 9   E b b b b E }                                                         ",
"                      $ . + . + + . + . + . + . + . + . + . + . . : $ b b L b b b }                                                         ",
"                    v - + . + . . + . + . + . + . + . + . + . + . . 5 L b b b b b '                                                         ",
"                p t 9 . . + . + + . + . + . + . + . + . + . + . : : 5 H b b K b L /                                                         ",
"                : . + . + . + . . + . + . + . + . + . + . + . + . . $ Z b b K b b b                                                         ",
"                9 + . + . + . + + . + . + . + . + . + . + . + . ; . . S b b K M b /                                                         ",
"                : + + . + . + . . + . + . + . + . + . + . + . + . O . 6.U K M M b J                                                         ",
"                7 + . + . + . + + . + . + . + . + . + . + . + . $ . . 6.I M M M I A . + . + . 7                                             ",
"                : . + . + . + . . + . + . + . + . + . + . + . + - . . & 6.6.6.6.7.* + . + . + + 5                                           ",
"                : : . + . + . + + . . + . + . + + . + . + . + . $ . . . $ $ $ $ @ . + . + . + . . p                                         ",
"                9 . + . + . + . . + + . + . + . . + . + . + . + $ . $ - . : . . . . . + . + . + + . i                                       ",
"                : + : : : : : : + + . + . + . + + . + . + . + . $ - $ . . . : . + . + . + . + . . + p                                       ",
"                9 . :           : . + . + . + . . + . + . + . + $ . . . : . . . . + . + . + . + + . : 9 9                                   ",
"                : : :           : + . + . + . + + . + . + . + . . . . . : . . : + . + . + . + . . + . + + p                                 ",
"                9 . :           : . + . + . + . . + . + . + . + . . : . : . . : . + . + . + . + + . + . . p                                 ",
"                : + :           : . . + . . . + + . + . + . + . : : . . . . . . + . + . + . + . . + . + . p                                 ",
"                9 + :           9 9 9 : 9 : + . . + . + . + . + . . . : . : : . . + . + . + . + + . + . . p                                 ",
"                9 . : : : : : 9           : . + . + . + + . + . . + . + . + . + . + . + . + . + . + . + + p                                 ",
"                7 + . . : . . :           6 . . + . + . . + . + + . + . + . + . + . + . + . + . + . + . + p                                 ",
"                t : + . . . . :           6 . $ . + . + . . . . . + . + . + . + . + . + . + . + . + . + + p                                 ",
"                    x . : : . .           : - $ + . : : 9 : 9 9 : . + . + . + . + . + . + . + . + . + . + p                                 ",
"                      : . . : :           : . + . + :           9 . . : . + . + . + . + . + . + . + . + . p                                 ",
"                      . : . . . . . : . : : + . + . :           9 : . . + . + . + . + . + . + . + . + . . i                                 ",
"                        x . : . . : . : . . . + . + :           9 . : . . + . + . + . + . + . + . + . + + p                                 ",
"                          9 : . . : . . . : + . + . :           y . : . + . + . + . + . + . + . + . + . . p                                 ",
"                            9 : : : : 7 : : : 7 : . :           g 6 9 6 9 : . . . + . + . + . + + . + . + p                                 ",
"                                                6 + . : 5 5 - 9           g : . + . + . + . + . . + . + + p                                 ",
"                                                : : + . . . . t           j . . . + . + . + . + + . + . + i                                 ",
"                                                7 . . + . . . t           j . : + . + . + . + . . + . . . i                                 ",
"                                                    : . . . : t           g . . . + . + . + . + + . 7                                       ",
"                                                      + : . . t           g + . + . + . + . + . . + i                                       ",
"                                                      : : . . 7 x k x k x y . + . + . + . + . + . + p                                       ",
"                                                          + . . . . . + . . + . + . + . + . + . + x                                         ",
"                                                          : : . - $ $ $ . . . . + . + . + . + + :                                           ",
"                                                            j : : : - 5 : : : : : : : : : : : :                                             ",
"                                                                                                                                            ",
"                                                                                                                                            ",
"                                                                                                                                            ",
"                                                                                                                                            "
};
