/* XPM */
static char *b7657473b50640afc151b317f8361d87gk9OB19wT6ZZY8Gn[] = {
/* columns rows colors chars-per-pixel */
"70 70 25 1 ",
"  c None",
". c #C95197",
"X c #C95297",
"o c #C95397",
"O c #C95298",
"+ c #C95398",
"@ c #C95498",
"# c #C95499",
"$ c #C95599",
"% c #CA5599",
"& c #CA5699",
"* c #CA559A",
"= c #CA569A",
"- c #CA579A",
"; c #CA599C",
": c #CA5A9C",
"> c #CB5B9D",
", c #CB5C9D",
"< c #CB5D9E",
"1 c #CB5E9E",
"2 c #CB5E9F",
"3 c #CB5F9F",
"4 c #CC5E9F",
"5 c #CC5F9F",
"6 c #CB609E",
/* pixels */
"                                                                      ",
"                                                                      ",
"                                                                      ",
"                                                                      ",
"                                                                      ",
"                                                                      ",
"                                                                      ",
"                                                                      ",
"                                                                      ",
"                                                                      ",
"              XXXXX,                              OXXXO               ",
"              XXXXX,                              XXXXX               ",
"              XXXXX,                              XXXXX               ",
"              XXXXX>                              =XXXX               ",
"              XXXXX,                              XXXXX               ",
"                                                                      ",
"                    OXXXXO                  XXXXX                     ",
"                    =XXXX                   XXXXX                     ",
"                    XXXXX                   XXXXX                     ",
"                    XXXXX                   XXXXX                     ",
"                    OXXXX                   XXXXX                     ",
"              ======XXXXXO                 =XXXXX======               ",
"              XXXXXXXXXXXXXXXXXXXXXXXXXXXXXXXXXXXXXXXXX               ",
"              XXXXXXXXXXXXXXXXXXXXXXXXXXXXXXXXXXXXXXXXX               ",
"              XXXXXXXXXXXXXXXXXXXXXXXXXXXXXXXXXXXXXXXXX               ",
"              XXXXXXXXXXXXXXXXXXXXXXXXXXXXXXXXXXXXXXXXX               ",
"              XXXXXXXXXXXXXXXXXXXXXXXXXXXXXXXXXXXXXXXXX               ",
"             OXXXXX=     XXXXXXXXXXXXXXXXXXX     =XXXXX=              ",
"        XXXXXXXXXXX       .XXXXXXXXXXXXXXXX       XXXXXXXXXXX         ",
"        XXXXXXXXXXX       XXXXXXXXXXXXXXXXX       XXXXXXXXXXX         ",
"        XXXXXXXXXXX       XXXXXXXXXXXXXXXXX       oXXXXXXXXXX         ",
"        XXXXXXXXXXX       XXXXXXXXXXXXXXXXX       XXXXXXXXXXX         ",
"        XXXXXXXXXXX       XXXXXXXXXXXXXXXXX       oXXXXXXXXXX         ",
"  >>   =XXXXXXXXXXX=     =XXXXXXXXXXXXXXXXX= >   =XXXXXXXXXXX=,  ->   ",
"  XXXXXXXXXXXXXXXXXXXXXXXXXXXXXXXXXXXXXXXXXXXXXXXXXXXXXXXXXXXXXXXX=   ",
"  XXXXXXXXXXXXXXXXXXXXXXXXXXXXXXXXXXXXXXXXXXXXXXXXXXXXXXXXXXXXXXXXX   ",
"  XXXXXXXXXXXXXXXXXXXXXXXXXXXXXXXXXXXXXXXXXXXXXXXXXXXXXXXXXXXXXXXXX   ",
"  XXXXXXXXXXXXXXXXXXXXXXXXXXXXXXXXXXXXXXXXXXXXXXXXXXXXXXXXXXXXXXXXo   ",
"  XXXXXXXXXXXXXXXXXXXXXXXXXXXXXXXXXXXXXXXXXXXXXXXXXXXXXXXXXXXXXXXXo   ",
"  XXXXX-=    OXXXXXXXXXXXXXXXXXXXXXXXXXXXXXXXXXXXXXXXXX=     =XXXXX   ",
"  XXXXX,      XXXXXXXXXXXXXXXXXXXXXXXXXXXXXXXXXXXXXXXXX       XXXXX   ",
"  XXXX=,      XXXXXXXXXXXXXXXXXXXXXXXXXXXXXXXXXXXXXXXXX       oXXXo   ",
"  XXXXX,      XXXXXXXXXXXXXXXXXXXXXXXXXXXXXXXXXXXXXXXXX       oXXXX   ",
"  XXXX=,      XXXXXXXXXXXXXXXXXXXXXXXXXXXXXXXXXXXXXXXXX       oXXXX   ",
"  XXXXX,      XXXXXXXXXXXXXXXXXXXXXXXXXXXXXXXXXXXXXXXXX       oXXXo   ",
"  XXXX=,      XXXXX=                             =XXXXX       oXXXo   ",
"  XXXXX,      XXXXX                               OXXXX       oXXXX   ",
"  XXXXO6      XXXXX                               XXXXX       oXXXo   ",
"  XXXXX6      XXXXX                               XXXXX       =XXXo   ",
"  XXXXX,      XXXXX                              5=XXXX       XXXXX,  ",
"  oo=XO6      XXXXX                               XXXoO      ,XXXo=,  ",
"      6                                                               ",
"                    OXXXXXXXXXX       XXXXXXXXXXX                     ",
"                    OXXXXXXXXXX       XXXXXXXXXXX                     ",
"                    OXXXXXXXXXX       XXXXXXXXXXX                     ",
"                    =XXXXXXXXXX       XXXXXXXXXXX                     ",
"                    OXXXXXXXXXX       XXOXXXXXXXO                     ",
"                                                                      ",
"                                                                      ",
"                                                                      ",
"                                                                      ",
"                                                                      ",
"                                                                      ",
"                                                                      ",
"                                                                      ",
"                                                                      ",
"                                                                      ",
"                                                                      ",
"                                                                      ",
"                                                                      "
};
