/* XPM */
static char *e13a09698e1e4a8bc386e9047cea626c1y0cokVEMyvRJ2Pf[] = {
/* columns rows colors chars-per-pixel */
"70 70 149 2 ",
"   c None",
".  c #7E516C",
"X  c #7F516C",
"o  c #7F526D",
"O  c #7E546E",
"+  c #80516D",
"@  c #82516E",
"#  c #83516F",
"$  c #845170",
"%  c #875171",
"&  c #845371",
"*  c #845471",
"=  c #845672",
"-  c #885172",
";  c #8B5173",
":  c #885272",
">  c #8A5174",
",  c #8C5174",
"<  c #8D5175",
"1  c #8E5175",
"2  c #8F5176",
"3  c #8D5376",
"4  c #8A5675",
"5  c #8E5578",
"6  c #905177",
"7  c #915177",
"8  c #925178",
"9  c #935178",
"0  c #935179",
"q  c #925278",
"w  c #93537A",
"e  c #945179",
"r  c #97517B",
"t  c #95537B",
"y  c #96527B",
"u  c #97527B",
"i  c #925579",
"p  c #905679",
"a  c #98527C",
"s  c #9A527D",
"d  c #99537E",
"f  c #9B527E",
"g  c #9D517F",
"h  c #9E517F",
"j  c #9D557F",
"k  c #96587D",
"l  c #9F5180",
"z  c #A05180",
"x  c #A05181",
"c  c #A15181",
"v  c #A05381",
"b  c #A25182",
"n  c #A75285",
"m  c #A95186",
"M  c #AB5187",
"N  c #A95287",
"B  c #AA5286",
"V  c #AB5287",
"C  c #AC5187",
"Z  c #A95487",
"A  c #AD5188",
"S  c #AE5189",
"D  c #AF5189",
"F  c #B0518A",
"G  c #B1518A",
"H  c #B1518B",
"J  c #B2518B",
"K  c #B3518B",
"L  c #B1528B",
"P  c #B0548B",
"I  c #B3518C",
"U  c #B0538C",
"Y  c #B2528C",
"T  c #B3528C",
"R  c #B3538C",
"E  c #B3528D",
"W  c #B4518C",
"Q  c #B4518D",
"!  c #B5518D",
"~  c #B6518D",
"^  c #B4528C",
"/  c #B4528D",
"(  c #B6518E",
")  c #B5548E",
"_  c #B9518F",
"`  c #B95290",
"'  c #BB5291",
"]  c #BB5392",
"[  c #BD5192",
"{  c #BE5192",
"}  c #BF5193",
"|  c #BD5292",
" . c #BC5392",
".. c #BD5392",
"X. c #B85490",
"o. c #B85590",
"O. c #BB5492",
"+. c #BF5394",
"@. c #BC5894",
"#. c #BE5A95",
"$. c #BD5996",
"%. c #BD5A96",
"&. c #BD5B96",
"*. c #BE5A96",
"=. c #BF5A97",
"-. c #BE5B97",
";. c #BF5B97",
":. c #BF5C97",
">. c #C05193",
",. c #C05194",
"<. c #C15194",
"1. c #C25194",
"2. c #C25195",
"3. c #C35195",
"4. c #C05294",
"5. c #C25295",
"6. c #C35295",
"7. c #C35196",
"8. c #C45196",
"9. c #C55197",
"0. c #C65197",
"q. c #C75197",
"w. c #C45296",
"e. c #C45396",
"r. c #C45297",
"t. c #C65297",
"y. c #C25495",
"u. c #C75198",
"i. c #C55298",
"p. c #C75298",
"a. c #C75299",
"s. c #C65399",
"d. c #C75399",
"f. c #C55599",
"g. c #C65498",
"h. c #C65499",
"j. c #C75499",
"k. c #C75599",
"l. c #C55699",
"z. c #C85198",
"x. c #C85199",
"c. c #C95199",
"v. c #CA5199",
"b. c #C85298",
"n. c #C85299",
"m. c #C95299",
"M. c #C8539A",
"N. c #C85499",
"B. c #C75A9B",
/* pixels */
"                                                                                                                                            ",
"                                                                                                                                            ",
"                                                                                                                                            ",
"                                                                                                                                            ",
"                                                                                                                                            ",
"                                                                                                                                            ",
"                                                                                                                                            ",
"                                                  l F F F ! M               b F F F F C                                                     ",
"                                                  J z.u.0.c.4.              F c.0.p.c.4.                                                    ",
"                                                  J z.0.0.0.{               S c.0.0.0.4.                                                    ",
"                                                  F u.0.0.0.3.              S 0.0.0.0.>.                                                    ",
"                                                  F z.p.p.p.{               S c.u.z.0.>.                                                    ",
"                                        $ u u 7 u ` 7                                   7 8 8 u 8                                           ",
"                                        Y c.0.c.0.,                                     S c.z.z.3.                                          ",
"                                        Y c.0.z.{                                       S z.0.0.3.                                          ",
"                                        Y 0.0.0.{                                       S z.0.0.{                                           ",
"                                        F p.0.0.{                                       C c.0.0.+.                                          ",
"                                      o o.c.0.0.3.$                                     ! p.0.0.3.>                                         ",
"                            ! N.f.f.c.g.0.0.0.0.0.{ +                                 ! p.0.0.0.0.p.f.c.f.p.y.                              ",
"                            F c.0.0.0.0.0.0.0.0.0.0.0.0.0.3.0.3.3.0.0.3.3.0.0.3.3.0.0.0.0.0.0.0.0.0.0.p.0.0.3.                              ",
"                            J p.0.0.0.0.0.0.0.0.0.0.0.0.0.0.0.0.0.0.0.0.0.0.0.0.0.0.0.0.0.0.0.0.0.0.0.0.0.0.4.                              ",
"                            K p.0.0.0.0.0.0.0.0.0.0.0.0.0.0.0.0.0.0.0.0.0.0.0.0.0.0.0.0.0.0.0.0.0.0.0.0.0.0.3.                              ",
"                            F c.0.0.0.0.0.0.0.0.0.0.0.0.0.0.0.0.0.0.0.0.0.0.0.0.0.0.0.0.0.0.0.0.0.0.0.0.0.0.+.                              ",
"                            ! 0.0.0.0.0.0.0.0.0.0.0.0.0.0.0.0.0.0.0.0.0.0.0.0.0.0.0.0.0.0.0.0.0.0.0.0.0.0.0.3.                              ",
"                          n 0.0.0.0.0.0.0.0.0.0.0.0.0.0.0.0.0.0.0.0.0.0.0.0.0.0.0.0.0.0.0.0.0.0.0.0.0.0.0.0.0.)                             ",
"                b Y F F J 3.0.0.0.0.0.0.0.0.0.0.0.0.0.0.0.0.0.0.0.0.0.0.0.0.0.0.0.0.0.0.0.0.0.0.0.0.0.0.0.0.0.0.! F F S S                   ",
"                ! c.p.p.z.0.0.0.0.0.0.0.0.0.0.0.0.0.0.0.0.0.0.0.0.0.0.0.0.0.0.0.0.0.0.0.0.0.0.0.0.0.0.0.0.0.0.0.c.0.p.c.3.                  ",
"                ! p.0.0.0.0.0.0.0.0.0.0.0.0.0.0.0.0.0.0.0.0.0.0.0.0.0.0.0.0.0.0.0.0.0.0.0.0.0.0.0.0.0.0.0.0.0.0.0.0.0.0.3.                  ",
"                F c.0.0.0.0.0.0.0.0.0.0.0.0.0.0.0.0.0.0.0.0.0.0.0.0.0.0.0.0.0.0.0.0.0.0.0.0.0.0.0.0.0.0.0.0.0.0.0.0.0.0.4.                  ",
"                W p.0.0.0.0.0.0.0.0.4.; X X o + + + _ 0.0.0.0.0.0.0.0.0.0.0.0.0.0.0.3.> X X o o o + ! p.0.0.0.0.0.0.0.0.4.                  ",
"    4 5       , } 0.0.0.0.0.0.0.0.0.3.t           ; { 0.0.0.0.0.0.0.0.0.0.0.0.0.0.0.3.f   O       $ { 0.0.0.0.0.0.0.0.0.0.v i     = i       ",
"    o.f.u , 8 +.u.0.0.0.0.0.0.0.0.0.0.0.u , , , 7 { p.0.0.0.0.0.0.0.0.0.0.0.0.0.0.0.0.0.f o.f , 8 o.0.0.0.0.0.0.0.0.0.0.0.N.N.f 7 o.f.      ",
"    ! p.0.c.0.0.0.0.0.0.0.0.0.0.0.0.0.0.0.c.0.c.0.0.0.0.0.0.0.0.0.0.0.0.0.0.0.0.0.0.0.0.0.0.p.c.0.0.0.0.0.0.0.0.0.0.0.0.0.0.0.c.p.0.3.      ",
"    ! p.0.0.0.0.0.0.0.0.0.0.0.0.0.0.0.0.0.0.0.0.0.0.0.0.0.0.0.0.0.0.0.0.0.0.0.0.0.0.0.0.0.0.0.0.0.0.0.0.0.0.0.0.0.0.0.0.0.0.0.0.0.0.3.      ",
"    ! 0.0.0.0.0.0.0.0.0.0.0.0.0.0.0.0.0.0.0.0.0.0.0.0.0.0.0.0.0.0.0.0.0.0.0.0.0.0.0.0.0.0.0.0.0.0.0.0.0.0.0.0.0.0.0.0.0.0.0.0.0.0.0.3.      ",
"    ! c.0.0.0.0.0.0.z.z.0.0.0.0.0.0.0.0.0.0.0.0.0.0.0.0.0.0.0.0.0.0.0.0.0.0.0.0.0.0.0.0.0.0.0.0.0.0.0.0.0.0.0.0.p.p.c.0.0.0.0.0.0.0.3.      ",
"    ! p.0.0.0.0.0.S M M C 3.0.0.0.0.0.0.0.0.0.0.0.0.0.0.0.0.0.0.0.0.0.0.0.0.0.0.0.0.0.0.0.0.0.0.0.0.0.0.0.0.0.0.S M M M C +.p.0.0.0.y.      ",
"    ! p.0.0.0.B.B         b 0.0.0.0.0.0.0.0.0.0.0.0.0.0.0.0.0.0.0.0.0.0.0.0.0.0.0.0.0.0.0.0.0.0.0.0.0.0.0.0.0.P           f 3.0.0.0.3.      ",
"    ! p.0.0.p.&.            ! 0.0.0.0.0.0.0.0.0.0.0.0.0.0.0.0.0.0.0.0.0.0.0.0.0.0.0.0.0.0.0.0.0.0.0.0.0.0.0.3.              M p.0.0.3.      ",
"    W u.0.0.p.&.            F z.0.0.0.0.0.0.0.0.0.0.0.0.0.0.0.0.0.0.0.0.0.0.0.0.0.0.0.0.0.0.0.0.0.0.0.0.0.0.4.              M p.0.0.3.      ",
"    ! p.0.0.p.$.            W z.0.0.0.0.0.0.0.0.0.0.0.0.0.0.0.0.0.0.0.0.0.0.0.0.0.0.0.0.0.0.0.0.0.0.0.0.0.0.3.              M 0.0.0.3.      ",
"    ! p.0.0.0.$.            F z.0.0.0.0.0.0.0.0.0.0.0.0.0.0.0.0.0.0.0.0.0.0.0.0.0.0.0.0.0.0.0.0.0.0.0.0.0.0.4.              M c.0.0.3.      ",
"    ! p.0.0.c.&.            W 0.0.0.0.0.3.3.3.4.3.4.3.3.4.3.4.3.3.3.3.{ 3.4.4.3.4.3.4.4.3.4.4.3.3.0.0.0.0.0.4.              M 0.0.0.y.      ",
"    ! c.0.0.c.&.            W z.0.0.0.{                                                           S 0.0.0.0.3.              B z.0.0.3.      ",
"    ! c.0.0.p.$.            W 0.0.0.4.                                                              ! p.0.0.4.              B c.0.0.3.      ",
"    ! 0.0.0.g.l.            F z.0.0.{                                                               S p.0.0.4.              B 0.0.0.3.      ",
"    ! z.0.0.g.&.            W z.0.0.{                                                               M p.0.0.3.              B c.0.0.y.      ",
"    ! z.0.0.f.&.            F z.0.0.{                                                               { 0.0.0.4.              B z.0.0.0.j     ",
"    ! c.c.z.f.y.            ) c.p.p.}                                                             =  .c.c.0.0.               .c.N.z.c.B.    ",
"      8 8 t @.k             $ 7 8 u <                                                               + 8 7 8 ,               i 7 7 8 q p     ",
"                                                        +                     + + + +         + +                                           ",
"                                        Y c.0.0.0.0.0.0.0.p.{               S c.0.0.0.0.0.0.0.0.3.                                          ",
"                                        Y u.0.0.0.0.0.0.0.0.3.              S p.0.0.0.0.0.0.0.0.+.                                          ",
"                                        Y p.0.0.0.0.0.0.0.0.{               S p.0.0.0.0.0.0.0.0.3.                                          ",
"                                        Y z.0.p.p.0.p.u.u.z.>.              J z.p.c.c.0.c.p.0.c.4.                                          ",
"                                        z W ! Y Y ! I I I W A               z W Y F ! Y F ! Y ! S                                           ",
"                                                                                                                                            ",
"                                                                                                                                            ",
"                                                                                                                                            ",
"                                                                                                                                            ",
"                                                                                                                                            ",
"                                                                                                                                            ",
"                                                                                                                                            ",
"                                                                                                                                            ",
"                                                                                                                                            ",
"                                                                                                                                            ",
"                                                                                                                                            ",
"                                                                                                                                            ",
"                                                                                                                                            ",
"                                                                                                                                            "
};
