/* XPM */
static char *Screen_Shot_2023_02_01_at_11_55_57_AM_removebg_preview__1_1675249135[] = {
/* columns rows colors chars-per-pixel */
"70 70 87 1 ",
"  c None",
". c #060405",
"X c #090606",
"o c #0D0806",
"O c #080708",
"+ c #0D0909",
"@ c #130C07",
"# c #140C0B",
"$ c #190E0C",
"% c #16100F",
"& c #1D120C",
"* c #171010",
"= c #1C1313",
"- c #21140D",
"; c #27190C",
": c #2E1F0F",
"> c #241511",
", c #291713",
"< c #241816",
"1 c #2C1A14",
"2 c #241919",
"3 c #2D1C1A",
"4 c #321C16",
"5 c #341E19",
"6 c #381F19",
"7 c #31200F",
"8 c #322110",
"9 c #3A2512",
"0 c #3F2914",
"q c #35201C",
"w c #3D221B",
"e c #342423",
"r c #3A2523",
"t c #3D2826",
"y c #3E2A2A",
"u c #422B14",
"i c #482E16",
"p c #42251D",
"a c #4C3117",
"s c #4F3318",
"d c #543619",
"f c #57381A",
"g c #5C3C1B",
"h c #613F1D",
"j c #432721",
"k c #452922",
"l c #4A2B24",
"z c #442E2D",
"x c #4D2F29",
"c c #46302F",
"v c #4B312E",
"b c #53322C",
"n c #473030",
"m c #4E3433",
"M c #523633",
"N c #583731",
"B c #563937",
"V c #5C3A34",
"C c #563B3A",
"Z c #5B3D3B",
"A c #613E3A",
"S c #65411D",
"D c #68431E",
"F c #6D4720",
"G c #6F4820",
"H c #734B22",
"J c #794F23",
"K c #7D5125",
"L c #64403C",
"P c #68433F",
"I c #634341",
"U c #6B4643",
"Y c #6D4846",
"T c #724C4A",
"R c #77504E",
"E c #78504E",
"W c #7C5453",
"Q c #805326",
"! c #8B5A29",
"~ c #925E2B",
"^ c #95602C",
"/ c #9C652E",
"( c #A0672F",
") c #A1682F",
"_ c #A46A30",
"` c #AA6E32",
"' c #AD7033",
/* pixels */
"                            o........X.X                              ",
"                           *,@@>>>,>>#@>#                             ",
"                         %=3p$-pjplbp=$w$$%                           ",
"                       +#1BTk$&pjpNTl$$ppw4X+                         ",
"                    +.>wI3yRk%%kYbVEl=$pp>-66-O+                      ",
"                   +OqzkZq5y>@+,z33k,@X>>>1kVr%X+                     ",
"                  *@%mBppw-.&&&&@&&@&&$$X-wkUb1#=2                    ",
"                 +>pw=>pw&o&gSgSSShSShSg$X-wj-%pTt+                   ",
"                O=nUkw,#$0ag^JJ//////KH^gs9#@,wpvt,+                  ",
"               %>=rM,>;97D!~`KK`````'KK)!!F99;>>w53y=                 ",
"              22p-=<&%0HD/```KK'`````KK'``^DJ0@&4-qU2=                ",
"             OyUpw>&gSQ/D^```KK`````'KK)`'^G/KDg&;wpw>+               ",
"            +=2=@#7g^/)/H^```KK``````QK'`'^D))/^g4@##,1+              ",
"            X13>-o7H)`')H^'``QK'`````QK)``^H)''`H7X--q6X              ",
"            X4llp%7H```)D^```KK```)``QK``'^D)'')H7$ppkrO              ",
"            X4VYp%7H)`')H^```KK``````KK```^D)'`)H:$ppLL+              ",
"            X@5bj#7H)``/D/```KK'`````QJ```^G)``)H:,Uxxjo              ",
"            O$>>>+7H`'`)H^```KK``````QJ```^G)``)H1*c3>-X              ",
"            X41#@o4H)``)H^```KQ``````QJ```^G)'``H7.@@@+.              ",
"            X4pw6#1H)``(D/```KK``````QJ```^G)``)H1#www4X              ",
"            X4NUj#8H```)G^```KK``````QJ```^G)```H7$ppp4X              ",
"            X$ez,@8H)``(G^```KQ``````QJ```^G)``)H7%wp4>O              ",
"            X##@@.7H)``(G^```KK``````QJ``'^G)``)D;#ww>+.              ",
"            oCZw6#7H```(G^```QK``````QJ``'^G(``/;.X+oeyO              ",
"            XjLLj#4H_``(G^'``KK`````)QK```^hu977X.#11CZ+              ",
"            X1bAj#7H_`'(G~```KQ``````QJ```^hX.....$pNAM+              ",
"            X4ww6#7H_``(H^```QK``````QJ```~h;-&&..#rYN4X              ",
"            X41+@X8H)``(G^```KK``````KK``'~G~^/!&.o@pp4X              ",
"            X@eZC=7H)``(G^'``QQ``````QK```^G)`')f-@1$$#X              ",
"            X#jYW27H)``(G^```KK``````QJ```^G)'`_H:$w>&$X              ",
"            X4pxY24H)``(G^```QK``````KJ```~G)'`_H7#ppp6X              ",
"            X4ppk*7H```(G^'``KK``````QJ``'^G)``)H:#ppp4X              ",
"            X#$>p#7H)``)D^'`'QK``````QK```^G)``)H7@ppp4X              ",
"            .#<51@7H)``)H^```KK`````)QK```^G)```H:$p44>X              ",
"            X4NU#X7H)')~SQ)``KK``````QK```^G)``)H:@6#++.              ",
"            X4kkw@7J)'H@@@d``KK``````KK_``^G)```H7.@564.              ",
"            X4ppp#8H)`^goa!)`KK``````QK```^G)`')H:+4pNM+              ",
"            X>44w#8H``'^$J'''KK'`````KJ```^G)```H7$ppVM+              ",
"            .X+#6#8H)`)K$D)``KK``````QJ``'^G)``)H:#66w4X              ",
"            .464@.8H)`H@.of``KK``````QJ```^G)`')H:.+++o.              ",
"            o4jp,+7H)Ddhuggg)KK'`````KK_``^H)```H8@,,,>X              ",
"            O4pjp#7H)7i)G/S@/KK``````QK```~F)``)H1#ppp6X              ",
"            .1www#4H)0i!S!S;/KK``````QJ```^G)``)H7#kpp1X              ",
"            .+@++X7H_/S&@#a^`KK``````QJ```^G)```H:3Yl>+.              ",
"            X-11,+8H_'!SugQ'`KK``````KJ```^F)``_H:#e>>>X              ",
"            X4ppj#7H_``_G/''`KK``````KK_`'^G)``_H:O#$46.              ",
"            X6kpw#7H_``(H^'``KK'`````KK``'^G)``_H7#ppk6X              ",
"            oCApp#7H_``(D^``'KK``````KK```^F)``_H:$ppAZ@              ",
"            OIC--X8H_``(H^'``KK``````QJ```^G)`')H1o-wMx+              ",
"            +ny#$X8H_``(D^```KK'`````KK```^G)``)g;o%14>X              ",
"            .+>pw#7H_``(H^'``KK``````QK```^D^)/~-.$w#+o.              ",
"            X,wpp#7H_``(G^``'KK``````QJ```^h:-;@..#p66,o              ",
"            X6pkA=4H```(G^'``KK'`````QJ```^ho.....#ppNmo              ",
"            X>4jE27G)``(G^```KK``````QJ```^S97::..@46UIo              ",
"            .o+<Y27H)``(G^'``KK``````QJ```^G(__/;.X@6AZo              ",
"            o,64=X7H```(G^```KQ```)``QJ```^G)'`_S;@4$$*O              ",
"            o4pw>+8H_``(G^'``KK``````QK```^G)``_H:#p1>$X              ",
"            O4lxp#8H_``(G^```QK``````QK)``^G)'`_H7#ppp6X              ",
"            X1NYp#7H_``(G^```KK``````KK```~G)``_H7#pjp4X              ",
"            X+==#X7H_``(G^'`'KK``````KK``'~G)``_H7$kUt+.              ",
"            X$,>>+8H_``_G^''`KK``````QK``'~G(```H:+>t5%O              ",
"            X4ppp#4H_``/G^```KK'`````QJ```~H)``)H:.##wjo              ",
"            X1ppw#7H_`'/F^'``KK``````QK```~G)``)H7#ppLZ+              ",
"            .@,pj@8H_`'/G^```KK``````KK_`'~G)```H7#jUArX              ",
"            Xee>>+4H)''/H^''`KK''''''KJ'''^G)''_H7X3RV4X              ",
"            XCx@@.7G///^D~///JJ//////JJ///!G^)//G7O&Cv,X              ",
"            Xqjww#7SDDDSSDDDDDSDDDDDDDDDDDDSDDDDS7@q%@oX              ",
"            XBApp#@-&-&-&&&-&&-&&&&&&&&&&&&&&&&&&@%06MmX              ",
"            Xer>>o..........X...........XX........+,>rrO              ",
"            X.X..XX.X.....X.XX.X..X.X..X.X.XX...X.......              "
};
