/* XPM */
static char *Screen_Shot_2023_02_01_at_11_56_43_AM_removebg_preview__1_1675249191[] = {
/* columns rows colors chars-per-pixel */
"70 70 83 1 ",
"  c None",
". c #000001",
"X c #090907",
"o c #050708",
"O c #090708",
"+ c #07090A",
"@ c #0C0B0B",
"# c #120E0D",
"$ c #16110C",
"% c #1C140C",
"& c #140F10",
"* c #161111",
"= c #1C1414",
"- c #1E1919",
"; c #21170D",
": c #22180D",
"> c #2C1E0F",
", c #211716",
"< c #231916",
"1 c #2B1F12",
"2 c #261A19",
"3 c #2B1D1C",
"4 c #301F1E",
"5 c #2C201F",
"6 c #352412",
"7 c #3A2613",
"8 c #3E2914",
"9 c #31211F",
"0 c #2B2121",
"q c #352422",
"w c #3A2624",
"e c #352827",
"r c #3E2926",
"t c #362A28",
"y c #3E2B29",
"u c #452D16",
"i c #482F16",
"p c #4E3317",
"a c #4C3218",
"s c #533619",
"d c #57381A",
"f c #5B3B1B",
"g c #623F1C",
"h c #402927",
"j c #442C2A",
"k c #492F2C",
"l c #44312E",
"z c #4D312E",
"x c #463431",
"c c #4B3532",
"v c #4D3936",
"b c #523532",
"n c #553935",
"m c #5C3B37",
"M c #543D3A",
"N c #5D3D39",
"B c #603F3B",
"V c #66421D",
"C c #6B451E",
"Z c #5D413D",
"A c #774C22",
"S c #7A4F24",
"D c #7D5024",
"F c #7C5228",
"G c #62413D",
"H c #5D4541",
"J c #644541",
"K c #674845",
"L c #694945",
"P c #6D4E4A",
"I c #71514D",
"U c #815224",
"Y c #885726",
"T c #8E5A27",
"R c #905B27",
"E c #945D28",
"W c #985F29",
"Q c #9F642B",
"! c #A0652B",
"~ c #A7692C",
"^ c #AD6C2E",
"/ c #B16E2E",
"( c #B2702F",
/* pixels */
"                      +.o..oo.ooo                                     ",
"                     Gy=#q0q99,@3*@                                   ",
"                    mJN3=mmmBGh#b32<                                  ",
"                 **-jLJ3,mBmLKh#bmc9**                                ",
"               o@qmZ=Mm2=nJnHZq#kb33mc&o                              ",
"              @olZmmz-@@o#####@o@#qbNKz#+                             ",
"             *rh5hmb=+............#wmn2wct        FSFSSF              ",
"            -yJNh332...............#33qnJb5    7FFSTEETSF             ",
"           =3jJjr=...................Oqwbbq5  1pUYU!//!SS             ",
"          -tj=y@.......................o33=v=%sDR!U!^/!SUUDF          ",
"         #xNbh@.........................ooo%CAAT^~UQ/^!U~^TAF         ",
"        @h3&&@............................%CQ!TT/~UQ/^!U^^TAS         ",
"        @zzh3.............................;D^^TT^~U!/^!U^/TAS         ",
"        @zJGro............................;D^^TR/~U!^^!U~^TAS         ",
"        @5NJro............................;S~^TT^~UQ^/!U~^TAS         ",
"        o#qz4.............................;S~^TT/~U!^^!S^^TAS         ",
"        @k2@@o............................:S~^TT^~U!/^!U~/RAS         ",
"        @zbzq.............................:S~^TR/~U!^/!U~^YAS         ",
"        @zKGho............................:S~/YR^~S!/^!U~^RAS         ",
"        O<ee=.............................:D~^TR^^U!/^QU~/RAS         ",
"        +-,=*o............................%f~^TT/~UQ^/QU~^TAS         ",
"        @ZJNw..............................#U~TT^~U!/^!U~^TAS         ",
"        @zLJro............................o.$SYR/~U!/^!U~/TAS         ",
"        @zNNw..............................oo%dR^~U!^/QU~/TSS         ",
"        @z4=#..............................#CAAR^~U!^^QU~/TAF         ",
"        +2eq,.............................#p~(TR^~U!/^QU~^TAA         ",
"        o=nKjo............................;U~^TT/~UQ/^!U~/RAF         ",
"        @zmJxo............................;S~/TT^~UQ//!U~/TAF         ",
"        @jbmho............................<S~^TR/~U!^/!U~^TAS         ",
"        o##wh.............................;S~^TT/~U!/^!U~^TAF         ",
"        @9xe#.............................;S~/TT^~U!^/!U~/TAS         ",
"        @zGc,.............................;F~^TR/~U!^^!U~/TSS         ",
"        @zmBro............................;S^^TT^~U!^/!U~/TAS         ",
"        @hkbr.............................;S^^TR^~U!/^QU~^RAS         ",
"        o@@qwo............................:S~^TT^~D!^/QU~/TAS         ",
"        Owk4@.............................;S~^TT(~U!/^QD~/TAS         ",
"        @kBk3.............................:D~^TR^^UQ(D6u!^TAS         ",
"        @bmBho............................:F~^YT^~U!^T7@sQTAS         ",
"        O4hh3.............................%D^^TT^~U!^(U@6RTSS         ",
"        O###@.............................:F~^TT^~U!(~C%Q^TAS         ",
"        @jnbwo............................;S~^TR/~U!~C#;R^RAS         ",
"        @zmmh.............................:S^^TT^~U!gpUd6TRAS         ",
"        @MZmro............................;S~^TR/~U!uu~C@URAS         ",
"        @Hzq<.............................:D~^TR/~U!AsdusWRAS         ",
"        @x3**.............................%f^^TT^~U!/S17!/TAS         ",
"        o@jmr..............................$U^TR/~S!/^WU^^TAS         ",
"        @jmmy.............................oo$YTT/~U!^/!U~^TAS         ",
"        @zmJco.............................o.%dR/~U!^^!U~^TAS         ",
"        O=,cv..............................@VCCQ^~U!^^!U~/TAS         ",
"        +,3e5.............................$i!^TT/~U!/^!U~^TAA         ",
"        @zmw#o............................%D~^TT^~D!/^!U~/TAS         ",
"        @zNmr.............................:D^^TT/~U!/^QU~/TAS         ",
"        @kJZwo............................:F~^TT/~UQ^/QU~^TAS         ",
"        o#==@......o.o....o...o...o.......;D^^TT^~U!/^!U~/TAS         ",
"        O5ww2.....#wwwwwjxxxvy3.o4rwyxw@..;S~^TT/~U!/^!U~/TAS         ",
"        @cNNyoo..*wmBNGJLILLPPM339qjGPm*=$:S~^TT^~U!^/QU~^TSS         ",
"        OwbBwO*==5hhhhvMMnjnJPLZn2*3knb*ye:D~^TT^~UQ/^QU~^TAA         ",
"        o#wbw#bmmq&##&@#@##hbMKHbzb3O=j#lj%D~/TT/~UQ^^QU^/TAS         ",
"        @v5#O#bLJNNvbbbbbbc=@&&&###O=h#ow9;D~^TT^^UQ//!U~^RAF         ",
"        @ncj4*bBNNNNKNJJmmmkjjjjjjjjw*o.#@;A^^TT^~UQ//!U~^RSF         ",
"        @MGNhO<32,230200222233222223=o.oo.<AR^TT^~U!^/!U~^TAS         ",
"        @ewq<o..o.o..o.....o...ooo.....oo.#uiUUR/~U!/^!U~^TSS         ",
"        +oooooooooo+++oooo+oooooooooo++ooo++@iAY~~U!^^!U~/TAS         ",
"                                             @igS!U!^^!U~/TAS         ",
"                                              *@6AAQ^^!U~/RAS         ",
"                                               +o%:T/^!U~^TAS         ",
"                                                   uuVTU~/TAS         ",
"                                                    o1usTQYSF         ",
"                                                      o$sffff         ",
"                                                        X@oo@         "
};
