/* XPM */
static char *png_clipart_pac_man_ghost_pac_man_world_3_ghosts_pac_man_ghost_text_rectangle_thumbnail_removebg_preview__1_1675243846[] = {
/* columns rows colors chars-per-pixel */
"70 70 208 2 ",
"   c None",
".  c #CB127C",
"X  c #CA137C",
"o  c #CB147D",
"O  c #DF1477",
"+  c #DF1577",
"@  c #D1107A",
"#  c #FF0063",
"$  c #FF0163",
"%  c #FF0263",
"&  c #FF0463",
"*  c #FF0064",
"=  c #FF0065",
"-  c #FF0165",
";  c #FF0264",
":  c #FF0365",
">  c #FF0066",
",  c #FF0166",
"<  c #FF0266",
"1  c #FF0366",
"2  c #FF0267",
"3  c #FF0367",
"4  c #FF0464",
"5  c #FF0564",
"6  c #FF0465",
"7  c #FF0565",
"8  c #FF0665",
"9  c #FE0466",
"0  c #FF0466",
"q  c #FF0566",
"w  c #FE0467",
"e  c #FF0467",
"r  c #FE0567",
"t  c #FF0567",
"y  c #FF0666",
"u  c #FF0766",
"i  c #FF0767",
"p  c #FF0866",
"a  c #FE0867",
"s  c #FF0867",
"d  c #FF0967",
"f  c #FF0B67",
"g  c #F90268",
"h  c #FB0268",
"j  c #FF0568",
"k  c #FE0768",
"l  c #FF0768",
"z  c #FE0868",
"x  c #FF0868",
"c  c #FF0968",
"v  c #FE0869",
"b  c #FE0969",
"n  c #FF0969",
"m  c #FF0B68",
"M  c #FF0A69",
"N  c #FE0B69",
"B  c #FF0B69",
"V  c #FF086A",
"C  c #FF096A",
"Z  c #FE0A6A",
"A  c #FE0B6A",
"S  c #FF0B6A",
"D  c #FF0C68",
"F  c #FE0D69",
"G  c #FD0F69",
"H  c #FF0E69",
"J  c #FF0C6A",
"K  c #FE0D6A",
"L  c #FF0D6A",
"P  c #FD0F6A",
"I  c #FE0E6A",
"U  c #FE0E6B",
"Y  c #FF0B6C",
"T  c #FF0D6D",
"R  c #FF116B",
"E  c #FF126B",
"W  c #FD116D",
"Q  c #FC136C",
"!  c #FC136D",
"~  c #FF126C",
"^  c #FE136E",
"/  c #FF126F",
"(  c #FC146D",
")  c #FC156D",
"_  c #E20A71",
"`  c #E00A72",
"'  c #E10A72",
"]  c #E40A71",
"[  c #E00C72",
"{  c #E00E73",
"}  c #E31275",
"|  c #E81B79",
" . c #FE1370",
".. c #FF1671",
"X. c #FF1872",
"o. c #FF1A73",
"O. c #FF1A74",
"+. c #FF1B74",
"@. c #FF1E76",
"#. c #FF2277",
"$. c #FD2478",
"%. c #FD2779",
"&. c #FD277A",
"*. c #FE2A7D",
"=. c #FD2C7E",
"-. c #FE2C7E",
";. c #FF2C7E",
":. c #FE2D7E",
">. c #FF2E7E",
",. c #FF2E7F",
"<. c #FF2F7F",
"1. c #3949BF",
"2. c #1D4BC7",
"3. c #1E4BC6",
"4. c #1E4BC7",
"5. c #1E4CC7",
"6. c #0E51CF",
"7. c #0C52CF",
"8. c #1A50CB",
"9. c #1E53CB",
"0. c #1C53CC",
"q. c #004FD2",
"w. c #0051D3",
"e. c #0052D3",
"r. c #0754D3",
"t. c #0052D4",
"y. c #0054D4",
"u. c #0055D4",
"i. c #0055D5",
"p. c #0155D5",
"a. c #0056D5",
"s. c #0A52D0",
"d. c #0A53D0",
"f. c #2B48C2",
"g. c #5F7CD6",
"h. c #9B339A",
"j. c #FF2F80",
"k. c #FF3080",
"l. c #FF3180",
"z. c #FF3481",
"x. c #FF3683",
"c. c #FF448C",
"v. c #FE4E90",
"b. c #FF5496",
"n. c #FF5898",
"m. c #FF5899",
"M. c #FF5999",
"N. c #FF5F9D",
"B. c #FF609D",
"V. c #FE639E",
"C. c #FE69A2",
"Z. c #FE6AA2",
"A. c #FF6DA6",
"S. c #FE71A6",
"D. c #FE74A9",
"F. c #4881DF",
"G. c #4B83E0",
"H. c #4A84E1",
"J. c #4C84E0",
"K. c #5D8FE3",
"L. c #5E90E3",
"P. c #5F91E3",
"I. c #6796E5",
"U. c #6997E5",
"Y. c #FF80B0",
"T. c #FF80B1",
"R. c #FF81B1",
"E. c #FF82B2",
"W. c #8EAFEB",
"Q. c #96B6EC",
"!. c #FEB2CE",
"~. c #FEB3CF",
"^. c #FEB5D0",
"/. c #FEB9D4",
"(. c #FEBAD4",
"). c #FEBCD5",
"_. c #FEC1D7",
"`. c #FEC7DC",
"'. c #FEDAE8",
"]. c #FFDBE8",
"[. c #FFDBE9",
"{. c #FFDEEB",
"}. c #FFDFEB",
"|. c #FFE1EC",
" X c #FFE3ED",
".X c #FDE7EF",
"XX c #F9E6F1",
"oX c #FDEBF1",
"OX c #FFEAF2",
"+X c #FEEBF2",
"@X c #FEEBF3",
"#X c #FFEDF4",
"$X c #FFEEF4",
"%X c #FFEFF5",
"&X c LavenderBlush",
"*X c #FFF9FB",
"=X c #F8FAFD",
"-X c #F9FAFE",
";X c #F9FBFE",
":X c #FFF9FC",
">X c #FFFAFC",
",X c #F9FCFF",
"<X c #FBFCFE",
"1X c #FFFCFD",
"2X c #FCFDFE",
"3X c #FFFDFE",
"4X c #FFFFFE",
"5X c white",
/* pixels */
"                                                                                                                                            ",
"                                                                                                                                            ",
"                                                                                                                                            ",
"                                                                                                                                            ",
"                                                        4 4 4 4 4 4 4 p 4 4 4 4 4 4 4 4                                                     ",
"                                                      > > 3 > > > > 3 > > > > > > > 3 > Z                                                   ",
"                                                      4 > > > > > > > > > > > > > > > > p                                                   ",
"                                                      j > > > > > > > > > > > > > > > > Z                                                   ",
"                                                      4 > > > > > > > > > > > > > > > > j                                                   ",
"                                      4 4 4 4 > j 4 4 > > > > > > > > > > > > > > > > > 3 4 j > 4 4 4                                       ",
"                                      > 3 > > > > > > > > > > > > > > > > > > > > > > > > > > > 3 3 >                                       ",
"                                      > 3 > > > > > > > > > > > > > > > > > > > > > > > > > > > > > >                                       ",
"                                      > > > > > > > > > > > > > > > > > > > > > > > > > > > > > > > >                                       ",
"                            P Z Z Z Z > > > > > > > > > > > > > > > > > > > > > > > > > > > > > > > > Z P Z Z P                             ",
"                            4 > > > > > > > > > > > > > > > > > > > > > > > > > > > > > > > > > > > > > > > > 4                             ",
"                            4 > > > > > > > > > > > > > > > > > > > > > > > > > > > > > > > > > > > > > > > > p                             ",
"                            Z > > > > > > > > # # # # # # # # > > > > > > > > > > > > > > > > > > # # # # # # &                             ",
"                          P 4 > > > > > > > ^ D.E.E.Y.Y.Y.Y.E.M.> > > > > > > > > > > > > > T A.E.Y.Y.Y.E.E.E.S.^                           ",
"                    > > > > > > > > > > > > &.oX3X3X3X3X3X3X3X^.j > > > > > > > > > > > > > +.}.3X3X3X3X3X3X3X).Z > > >                     ",
"                    & > > > > > > > > > > > &..X3X3X3X3X3X3X3X^.j > > > > > > > > > > > > > X.].3X3X3X3X3X3X3X(.j > > >                     ",
"                    > > > > > > > > > > # # $..X3X3X3X3X3X3X3X!.4 > # > > > > > > > > # > # X.].3X3X3X3X3X3X3X(.4 > # >                     ",
"                    > > > > > > > > ..k.<.<.v.oX3X3X3X3X3X3X3X_.z.k.<.<.Z > > > > # ^ <.j.<.c.|.3X3X3X3X3X3X3X`.x.<.<.k.                    ",
"                    > > > > > > > # V.%X%X%X&X3X3X3X3X3X3X3X3X1X%X%X#X].*.# > > > # M.%X%X%X&X3X3X3X3X3X3X3X3X3X&X%X%X%X                    ",
"                    > > > > > > > # Z.3X3X3X3X3X3X3X3X3X3X3X3X3X3X3X3XoX<.> > > > # B.3X3X3X3X3X3X3X3X3X3X3X3X3X3X3X3X3X                    ",
"                    > > > > > > > # Z.3X3X3X3X3X3X3X3X3X3X3X3X3X3X3X3XoX<.> > > > # B.3X3X3X3X3X3X3X3X3X3X3X3X3X3X3X3X3X                    ",
"                    > > > > > > > # Z.3X3X3X3X3X3X3X3X2X;X;X2X,X,X2X2XXX*.> > > > # N.3X3X3X3X3X3X3X3X2X,X2X2X;X,X2X;X;X                    ",
"                    > > > > > > > # Z.3X3X3X3X3X3X3X3XW.F.G.J.H.G.G.H.g.| > > > > # B.3X3X3X3X3X3X3X3XQ.F.G.J.J.G.G.G.J.                    ",
"                    > > > > > > > # Z.3X3X3X3X3X3X3X3XL.q.e.e.e.e.e.t.8.O > > > > > B.3X3X3X3X3X3X3X3XI.q.e.e.e.e.e.e.t.                    ",
"                    > > > > > > > # Z.3X3X3X3X3X3X3X3XL.u.u.u.u.u.u.u.9.O > > > > # B.3X3X3X3X3X3X3X3XU.e.u.u.u.u.u.u.p.                    ",
"                    > > > > > > > # Z.3X3X3X3X3X3X3X3XP.e.u.u.u.u.u.u.0.O # > > > # N.3X3X3X3X3X3X3X3XU.e.u.u.u.u.u.u.u.                    ",
"                  ^ > > > > > > > # Z.3X3X3X3X3X3X3X3XP.e.u.u.u.u.u.u.0.O # > > > # B.3X3X3X3X3X3X3X3XU.e.u.u.u.u.u.u.r.h.                  ",
"          ) 4 3 4 > > > > > > > > # Z.3X3X3X3X3X3X3X3XL.e.u.u.u.u.u.u.0.O > > > > > B.3X3X3X3X3X3X3X3XU.t.u.u.u.u.u.u.d.o > > 4 )           ",
"          ) > > > > > > > > > > > # Z.3X3X3X3X3X3X3X3XK.e.u.u.u.u.u.u.9.+ > > > > # B.3X3X3X3X3X3X3X3XU.e.u.u.u.u.u.u.d.. # > > Q           ",
"          ) > > > > > > > > > > > # Z.3X3X3X3X3X3X3X3XI.e.u.u.u.a.a.u.8.+ > > > > # B.3X3X3X3X3X3X3X3XU.e.u.u.u.u.u.u.d.. > > > ^           ",
"          ) > > > > > > > > > > > > M. X X|. X3X3X3X3XL.e.t.u.d.f.2.2.1.} > > > > # b.|. X X X*X3X3X3XI.e.t.u.d.5.2.2.f.@ > > > ^           ",
"          ^ > > > > > > > > > > > > Y +.+.X.R                   O ` ` _ h > > > > > Z #.+.#.#.                  } _ _ _ h > > > )           ",
"          ) > > > > > > > > > > > > > > # > #                   > # > > > > > > > > > > > > 4                   4 > > > > > > > ^           ",
"          ) > > > > > > > > > > > > > > > > &                   4 > > > > > > > > > > > > > j                   4 > > > > > > > )           ",
"          ) > > > > > > > > > > > > > > > > >                   > > > > > > > > > > > > > > 4                   4 3 > > > > > 4 ^           ",
"          ) > > > > > > > > > > > > > > > > > p P P P R P P P P > > > > > > > > > > > > > > > P R P P P P P P Z > 3 > > > > > > )           ",
"          ) > > > > > > > > > > > > > > > > > > > > > > > > > > > > > > > > > > > > > > > > > > > > > > > > > > > > > > > > > > ^           ",
"          ) > > > > > > > > > > > > > > > > > > > > > > > > > > > > > > > > > > > > > > > > > > > > > > > > > > > > > > > > > > )           ",
"          ) > > > > > > > > > > > > > > > > > > > > > > > > > > > > > > > > > > > > > > > > > > > > > > > > > > > > > > > > > > ^           ",
"          ) > > > > > > > > > > > > > > > > > > > > > > > > > > > > > > > > > > > > > > > > > > > > > > > > > > > > > > > > > > )           ",
"          ) > > > > > > > > > > > > > > > > > > > > > > > > > > > > > > > > > > > > > > > > > > > > > > > > > > > > > > > > > > ^           ",
"          ) > > > > > > > > > > > > > > > > > > > > > > > > > > > > > > > > > > > > > > > > > > > > > > > > > > > > > > > > 3 4 )           ",
"          ) > > > > > > > > > > > > > > > > > > > > > > > > > > > > > > > > > > > > > > > > > > > > > > > > > > > > > > > > 3 > ^           ",
"          ) > > > > > > > > > > > > > > > > > > > > > > > > > > > > > > > > > > > > > > > > > > > > > > > > > > > > > > > > > > )           ",
"          ) > > > > > > > > > > > > > > > > > > > > > > > > > > > > > > > > > > > > > > > > > > > > > > > > > > > > > > > > > > ^           ",
"          ) > > > > > > > > > > > > > > > > > > > > > > > > > > > > > > > > > > > > > > > > > > > > > > > > > > > > > > > > > > )           ",
"          ) > > > > > > > > > > > > > > > > > > > > > > > > > > > > > > > > > > > > > > > > > > > > > > > > > > > > > > > > > > ^           ",
"          ) 4 > > > > > > > > > > > > > > > > > > > > > > > > > > > > > > > > > > > > > > > > > > > > > > > > > > > > > > > > > )           ",
"          ) > > > > > > > > > > > > > > > > > > > > > > > > > > > > > > > > > > > > > > > > > > > > > > > > > > > > > > > > > 4 ^           ",
"          ) > > > > > > > > > > > > > > > > > > > > > > > > > > > > > > > > > > > > > > > > > > > > > > > > > > > > > > > > > > )           ",
"          ^ > > > > > > > 3 P Z Z Z P > > > > > > > > > > > > p P P Z p P P P P Z > > > > > > > > > > P Z P Z T 4 3 > > > > > > ^           ",
"          ) > > > > > > > 4           > > > > > > > > > > > > R                 ) > > > > > > > > > >           j > > > > > > > )           ",
"          ) > > > > > > > 4           > > > > > > > > > > > > R                 ) > > > > > > > > > >           j > > > > > > > ^           ",
"          ) > > > > > > > 4           > > > > > > > > > > > > R                 ) > > > > > > > > > >           4 > > > > > > > )           ",
"          ) > > > > Z j j P           Z p Z 4 > > > > > > > > R                 ) > > > > > > j Z 4 Z           Z Z 4 Z 4 > > > ^           ",
"          ) > > > Z                           Z > > > > > > > R                 ) > > > > > Z                           Y > > > )           ",
"          ) > > > 4                           4 > > > > > > > R                 ) > > > > > Z                           Z > > > Q           ",
"          ) > > > Z                           Z > > > > > > > R                 ) 4 > > > > j                           4 > > > ^           ",
"          ) > > > Z                           p > 4 > > > > > R                 ) > > > > > p                           Z > > 4 )           ",
"                                                                                                                                            ",
"                                                                                                                                            ",
"                                                                                                                                            ",
"                                                                                                                                            ",
"                                                                                                                                            ",
"                                                                                                                                            ",
"                                                                                                                                            "
};
