/* XPM */
static char *image__1_1675243960[] = {
/* columns rows colors chars-per-pixel */
"70 70 191 2 ",
"   c None",
".  c #CB0B7D",
"X  c #CC0A7D",
"o  c #CC0C7E",
"O  c #D2077B",
"+  c #FF0063",
"@  c #FF0064",
"#  c #FF0164",
"$  c #FF0065",
"%  c #FF0165",
"&  c #FE0066",
"*  c #FF0066",
"=  c #FE0166",
"-  c #FF0166",
";  c #FE0067",
":  c #FF0067",
">  c #FE0167",
",  c #FF0167",
"<  c #FF0367",
"1  c #F90068",
"2  c #FB0068",
"3  c #FE0168",
"4  c #FF0168",
"5  c #FE0169",
"6  c #FF0169",
"7  c #FE0268",
"8  c #FF0268",
"9  c #FF0368",
"0  c #FE0269",
"q  c #FF0269",
"w  c #FE0369",
"e  c #FF0369",
"r  c #FE026A",
"t  c #FF026A",
"y  c #FF036A",
"u  c #FF0468",
"i  c #FF0568",
"p  c #FE0469",
"a  c #FF0769",
"s  c #FD056A",
"d  c #FE046A",
"f  c #FF046A",
"g  c #FE056A",
"h  c #FE056B",
"j  c #FF056B",
"k  c #FD076A",
"l  c #FD076B",
"z  c #FF066A",
"x  c #FF036C",
"c  c #FF056D",
"v  c #FF086A",
"b  c #FF096B",
"n  c #FF0B6B",
"m  c #FB0B6C",
"M  c #FD0A6C",
"N  c #FF0B6D",
"B  c #FB0D6C",
"V  c #FB0C6D",
"C  c #FB0D6D",
"Z  c #FB0D6E",
"A  c #FD0C6E",
"S  c #E10373",
"D  c #E30372",
"F  c #E20373",
"G  c #E50372",
"H  c #E10473",
"J  c #E10674",
"K  c #E40A76",
"L  c #E00C78",
"P  c #E00D78",
"I  c #FF0A70",
"U  c #FE0B70",
"Y  c #FF0E72",
"T  c #E9147A",
"R  c #FF1173",
"E  c #FF1374",
"W  c #FF1375",
"Q  c #FF1475",
"!  c #FF1575",
"~  c #FF1877",
"^  c #FF1D78",
"/  c #FD1F79",
"(  c #FD227A",
")  c #FD227B",
"_  c #FE257E",
"`  c #FD287F",
"'  c #FE287F",
"]  c #FF287F",
"[  c #FE297F",
"{  c #FF2A7F",
"}  c #184AC7",
"|  c #174AC8",
" . c #134FCC",
".. c #184AC8",
"X. c #184BC8",
"o. c #1552CD",
"O. c #1852CC",
"+. c #004ED3",
"@. c #004FD4",
"#. c #0251D1",
"$. c #0252D1",
"%. c #0451D0",
"&. c #0650D0",
"*. c #0051D4",
"=. c #0050D5",
"-. c #0051D5",
";. c #0153D4",
":. c #0053D5",
">. c #0054D5",
",. c #0054D6",
"<. c #0055D6",
"1. c #2746C3",
"2. c #3647C0",
"3. c #5F7DD7",
"4. c #9C309C",
"5. c #FF2A80",
"6. c #FF2B80",
"7. c #FF2B81",
"8. c #FF2C81",
"9. c #FF2E81",
"0. c #FF3182",
"q. c #FF3384",
"w. c #FF428D",
"e. c #FE4D91",
"r. c #FF5397",
"t. c #FF5799",
"y. c #FF579A",
"u. c #FF589A",
"i. c #FF5F9E",
"p. c #FF609E",
"a. c #FE639F",
"s. c #FE69A3",
"d. c #FE6AA3",
"f. c #FF6DA7",
"g. c #FE70A7",
"h. c #FE75AA",
"j. c #4682E0",
"k. c #4A84E1",
"l. c #4B85E1",
"z. c #4885E2",
"x. c #5D90E4",
"c. c #5E91E4",
"v. c #5F92E4",
"b. c #6797E6",
"n. c #6697E7",
"m. c #6998E6",
"M. c #FF81B1",
"N. c #FF81B2",
"B. c #FF82B2",
"V. c #FF83B3",
"C. c #8FB0EC",
"Z. c #97B7ED",
"A. c #FEB3CF",
"S. c #FEB4D0",
"D. c #FEB6D1",
"F. c #FEBAD5",
"G. c #FEBBD5",
"H. c #FEBDD6",
"J. c #FEC2D8",
"K. c #FEC8DD",
"L. c #FEDBE9",
"P. c #FFDCE9",
"I. c #FFDCEA",
"U. c #FFDFEC",
"Y. c #FFE0EB",
"T. c #FFE3EC",
"R. c #FFE2ED",
"E. c #FFE4ED",
"W. c #FDE8EF",
"Q. c #F9E7F1",
"!. c #FFEBF2",
"~. c #FDECF1",
"^. c #FEECF2",
"/. c #FEECF3",
"(. c #FFEEF4",
"). c #FFEFF5",
"_. c LavenderBlush",
"`. c #FFFAFB",
"'. c #F8FAFD",
"]. c #F9FAFE",
"[. c #F9FBFE",
"{. c #FFF9FC",
"}. c #FFFAFC",
"|. c #F9FCFF",
" X c #FBFCFE",
".X c #FFFCFC",
"XX c #FFFCFD",
"oX c #FCFDFE",
"OX c #FFFDFE",
"+X c #FFFFFE",
"@X c white",
/* pixels */
"                                                                                                                                            ",
"                                                                                                                                            ",
"                                                                                                                                            ",
"                                                                                                                                            ",
"                                                    # 3 # 3 # # # # # 3 # # # # 3 #                                                         ",
"                                                  3 # # 3 # 3 # 3 # 3 # 3 3 3 # # # #                                                       ",
"                                                  3 # 3 # 3 # 3 # 3 # 3 # 3 # 3 # 3 #                                                       ",
"                                                  3 3 # 3 # 3 # 3 # 3 # 3 # 3 # 3 3 #                                                       ",
"                                                  3 3 # 3 # 3 # # 3 # 3 # 3 # 3 # 3 3                                                       ",
"                                      # # # 3 # # 3 # 3 # 3 # 3 3 # 3 # 3 # 3 # 3 # # # # 3 # 3 # # 3                                       ",
"                                      3 3 3 # 3 3 # 3 # 3 # 3 # # 3 # 3 # 3 # 3 3 # 3 # 3 # 3 # 3 # #                                       ",
"                                      # 3 # 3 # # 3 # 3 # 3 # 3 3 # 3 # 3 # 3 # # 3 # 3 # 3 # 3 # 3 #                                       ",
"                                      3 3 # 3 # 3 # 3 # 3 # 3 # # 3 # 3 # 3 # 3 3 # 3 # 3 # 3 # 3 # 3                                       ",
"                            p p 3 x 3 3 # 3 # 3 # 3 # 3 # 3 # 3 3 # 3 # 3 # 3 # # 3 # 3 # 3 # 3 # 3 3 3 3 x x c                             ",
"                            # # 3 # 3 # 3 # 3 # 3 # 3 # 3 # 3 # # 3 # 3 # 3 # 3 3 # 3 # 3 # 3 # # 3 # 3 3 # 3 #                             ",
"                            3 # # 3 # 3 # 3 # 3 # 3 # 3 # 3 # 3 3 # 3 # 3 # 3 # # 3 # 3 # 3 # 3 3 # 3 # # 3 # #                             ",
"                            # + + + + + + + + # 3 # 3 # 3 # 3 # # 3 # 3 # 3 # # + + + + # # # # # # 3 # 3 # 3 #                             ",
"                          U f.N.N.N.N.N.M.N.f.c # 3 # 3 # 3 # 3 3 # 3 # 3 # u.N.M.M.N.N.N.N.h.M # 3 # 3 # 3 # 3 c                           ",
"                    # 3 # 3 H.@X@X@X@X@X@X@XU.Q 3 # # 3 3 # 3 # # 3 # 3 # 3 S.@X@X@X@X@X@X@X/.( # # 3 # 3 # 3 # # 3 # #                     ",
"                    # # 3 3 H.@X@X@X@X@X@X@XI.W # # 3 # # 3 # 3 3 # 3 # 3 3 S.@X@X@X@X@X@X@XW.( 3 3 # 3 # 3 # 3 3 # 3 #                     ",
"                    # # # # F.@X@X@X@X@X@X@XI.R # # # # 3 # 3 # # 3 # # + # S.@X@X@X@X@X@X@XE.( # # # # 3 # 3 # 3 # 3 #                     ",
"                    9.5.5.q.K.@X@X@X@X@X@X@XR.w.5.5.5.I # 3 # 3 3 3 5.5.{ q.J.@X@X@X@X@X@X@X/.e.5.5.9.U # 3 # 3 # 3 # 3                     ",
"                    (.(.(.(.`.@X@X@X@X@X@X@X@X/.(.(.(.y.# # 3 # # _ L.(././.`.@X@X@X@X@X@X@X@X(.(.(.(.a.# # 3 # 3 # # #                     ",
"                    @X@X@X@X@X@X@X@X@X@X@X@X@X@X@X@X@Xi.# 3 # 3 # 5.!.@X@X@X@X@X@X@X@X@X@X@X@X@X@X@X@Xs.# # # 3 # 3 3 #                     ",
"                    @X@X@X@X@X@X@X@X@X@X@X@X@X@X@X@X@Xi.# # 3 # # _ !.@X@X@X@X@X@X@X@X@X@X@X@X@X@X@X@Xs.# 3 # 3 3 # # #                     ",
"                    [.[.[.[.[.[.[.[.@X@X@X@X@X@X@X@X@Xi.# # # 3 # 5.Q.|.[.[.[.[.[.[.[.@X@X@X@X@X@X@X@Xs.# # 3 # # 3 3 3                     ",
"                    l.k.k.k.l.l.k.j.Z.@X@X@X@X@X@X@X@Xi.# # 3 # # T 3.l.k.k.l.k.k.j.C.@X@X@X@X@X@X@X@Xs.+ # # 3 3 # 3 #                     ",
"                    @.*.*.*.*.*.+.+.b.@X@X@X@X@X@X@X@Xi.# 3 # 3 # O O.*.*.*.*.*.*.+.x.@X@X@X@X@X@X@X@Xs.# # 3 # # 3 # #                     ",
"                    <.<.*.<.<.;.<.*.m.@X@X@X@X@X@X@X@Xi.+ # 3 # # P O.<.*.<.*.<.<.*.v.@X@X@X@X@X@X@X@Xs.# # # 3 # 3 # 3                     ",
"                    <.*.<.<.;.<.*.*.m.@X@X@X@X@X@X@X@Xi.+ # # 3 # P O.*.<.<.;.<.<.*.v.@X@X@X@X@X@X@X@Xs.# 3 3 # 3 # 3 #                     ",
"                  4.*.<.*.;.<.;.<.*.m.@X@X@X@X@X@X@X@Xi.+ # 3 # # P O.<.<.;.<.;.<.*.v.@X@X@X@X@X@X@X@Xs.# # # 3 # 3 3 # M                   ",
"          Z # 3 # o &.<.<.<.;.<.<.*.m.@X@X@X@X@X@X@X@Xi.+ # # 3 # P O.<.;.<.;.<.*.*.v.@X@X@X@X@X@X@X@Xs.# # 3 # 3 # # 3 # 3 # 3 Z           ",
"          V 3 # + o &.<.<.*.<.<.<.*.m.@X@X@X@X@X@X@X@Xi.# 3 # 3 # P O.*.<.<.<.*.*.*.v.@X@X@X@X@X@X@X@Xs.# # 3 # 3 # 3 # 3 # 3 # m           ",
"          V # 3 + . &.<.<.<.<.*.*.*.m.@X@X@X@X@X@X@X@Xi.+ # 3 # 3 P o.<.<.<.<.<.<.*.v.@X@X@X@X@X@X@X@Xs.# # # 3 # 3 # 3 # 3 # 3 Z           ",
"          V 3 # # O 1.X.} } *.<.<.@.b.@X@X@X}.E.R.R.R.r.+ # # 3 # K 2.| } X.*.*.*.*.v.@X@X@X@XR.Y.R.R.y.# 3 3 # 3 # 3 # 3 # 3 # m           ",
"          Z # 3 # 1 D H D H                   ^ ~ ~ ~ x 3 # 3 # 3 3 G S D H                   v Q ~ Q 3 # 3 # 3 # 3 # 3 # 3 # 3 V           ",
"          Z # # # 3 # # # 3                   3 # # # 3 # 3 # 3 # 3 # # # #                   # # # # 3 3 # 3 # 3 # 3 # 3 # 3 # B           ",
"          Z # 3 3 # # 3 # 3                   # # 3 3 # 3 # 3 # 3 # 3 3 # 3                   # # # # 3 # 3 # 3 # 3 # 3 # 3 # 3 Z           ",
"          Z 3 # 3 # 3 # # 3                   3 # 3 # 3 # 3 # 3 # 3 3 # 3 #                   # 3 # 3 # 3 # 3 # 3 # 3 # 3 # 3 # Z           ",
"          U # 3 # 3 # 3 3 # 3 p v v v p v p p # 3 # 3 # 3 # 3 # 3 # # 3 # # p p v p v v v p 3 # # 3 # 3 # 3 # 3 # 3 # 3 # 3 # 3 Z           ",
"          Z # # # 3 # 3 # 3 # 3 # # # 3 # 3 # 3 # 3 # 3 # 3 # 3 # 3 # 3 # 3 # 3 # 3 # 3 # 3 # 3 3 # 3 # 3 # 3 # 3 # 3 # 3 # 3 # Z           ",
"          Z 3 # 3 # 3 # 3 # 3 # 3 # 3 # 3 # 3 # 3 # 3 # 3 # 3 # 3 # 3 # 3 # 3 # 3 # 3 # 3 # 3 # # 3 # 3 # 3 # 3 # 3 # 3 # 3 # 3 Z           ",
"          Z # 3 # 3 # 3 # 3 # 3 # 3 # 3 # 3 # 3 # 3 # 3 # 3 # 3 # 3 # 3 # 3 # 3 # 3 # 3 # 3 # 3 3 # 3 # 3 # 3 # 3 # 3 # 3 # 3 # Z           ",
"          N 3 # 3 # 3 # 3 # 3 # 3 # 3 # 3 # 3 # 3 # 3 # 3 # 3 # 3 # 3 # 3 # 3 # 3 # 3 # 3 # 3 # # 3 # 3 # 3 # 3 # 3 # 3 # 3 # 3 Z           ",
"          Z # # # 3 # 3 # 3 # 3 # 3 # 3 # 3 # 3 # 3 # 3 # 3 # 3 # 3 # 3 # 3 # 3 # 3 # 3 # 3 # 3 3 # 3 # 3 # 3 # 3 # 3 # 3 # 3 # Z           ",
"          Z # 3 3 # 3 # 3 # 3 # 3 # 3 # 3 # 3 # 3 # 3 # 3 # 3 # 3 # 3 # 3 # 3 # 3 # 3 # 3 # 3 # # 3 # 3 # 3 # 3 # 3 # 3 # 3 # 3 Z           ",
"          Z 3 # # 3 # 3 # 3 # 3 # 3 # 3 # 3 # 3 # 3 # 3 # 3 # 3 # 3 # 3 # 3 # 3 # 3 # 3 # 3 # 3 3 # 3 # 3 # 3 # 3 # 3 # 3 # 3 # Z           ",
"          Z # 3 3 # 3 # 3 # 3 # 3 # 3 # 3 # 3 # 3 # 3 # 3 # 3 # 3 # 3 # 3 # 3 # 3 # 3 # 3 # 3 # # 3 # 3 # 3 # 3 # 3 # 3 # 3 # 3 Z           ",
"          Z # 3 # 3 # 3 # 3 # 3 # 3 # 3 # 3 # 3 # 3 # 3 # 3 # 3 3 # 3 # 3 # 3 # # 3 # 3 # 3 # 3 3 # 3 # 3 # 3 # 3 # 3 # 3 # 3 # Z           ",
"          Z # # 3 # 3 # 3 # 3 # 3 # 3 # 3 # 3 # 3 # 3 # 3 # 3 # # 3 # 3 # 3 # 3 3 # 3 # 3 # 3 # # 3 # 3 # 3 # 3 # 3 # 3 # 3 # 3 Z           ",
"          Z # 3 # 3 # 3 # 3 # 3 # 3 # 3 # 3 # 3 # 3 # 3 # 3 # 3 3 # 3 # 3 # 3 # # 3 # 3 # 3 # 3 3 # 3 # 3 # 3 # 3 # 3 # 3 # 3 # Z           ",
"          N 3 # 3 # 3 # 3 # 3 # 3 # 3 # 3 # 3 # 3 # 3 # 3 # 3 # # 3 # 3 # 3 # 3 3 # 3 # 3 # 3 # # 3 # 3 # 3 # 3 # 3 # 3 # 3 # 3 Z           ",
"          Z # 3 # 3 # 3 # 3 # 3 # 3 # 3 # 3 # 3 # 3 # 3 # 3 # 3 3 # 3 # 3 # 3 # # 3 # 3 # 3 # 3 3 # 3 # 3 # 3 # 3 # 3 # 3 # 3 # Z           ",
"          Z 3 # 3 # 3 # 3 # 3 # 3 # 3 # 3 # 3 # 3 # 3 # 3 # 3 # # 3 # 3 # # # 3 3 # 3 # 3 # 3 # # 3 # # # 3 # # # 3 # 3 # 3 # 3 Z           ",
"          Z # 3 # 3 # 3 # # c p p x 3 3 # 3 # 3 # 3 # 3 # 3 c p c p 3 x 3 c 3 3 # 3 # 3 # 3 # 3 3 # 3 c 3 x 3 c 3 # 3 # 3 # 3 # Z           ",
"          Z 3 # 3 # 3 # 3 3           # 3 # 3 # 3 # 3 # 3 N                 M # 3 # 3 # 3 # 3 # # 3 #           3 3 # 3 # 3 # 3 Z           ",
"          Z 3 # # 3 3 # 3 3           3 # 3 # 3 3 # 3 # # Z                 v # 3 # 3 # 3 # # 3 3 # 3           # 3 3 # 3 # 3 # Z           ",
"          Z # 3 3 # # 3 # 3           # 3 # 3 # # 3 # 3 3 Z                 M # # 3 # 3 # 3 3 # # 3 #           3 # # # # 3 # 3 Z           ",
"          Z 3 # # 3 3 3 # p           3 3 3 3 # 3 # 3 # # U                 p 3 3 # 3 # 3 # 3 3 3 3 3           3 3 3 3 3 # 3 # Z           ",
"          B # 3 3 3                           3 # 3 # 3 # Z                 M # # 3 # 3 # 3 3                           3 3 # 3 Z           ",
"          V # # # 3                           3 3 # 3 # # U                 v # 3 # 3 # # 3 3                           3 3 # 3 B           ",
"          V # 3 3 3                           3 # 3 # 3 # Z                 p 3 # 3 # 3 3 # 3                           3 3 3 # Z           ",
"          V # 3 # 3                           3 # 3 3 # # Z                 N # 3 # # 3 # # 3                           3 # # # Z           ",
"                                                                                                                                            ",
"                                                                                                                                            ",
"                                                                                                                                            ",
"                                                                                                                                            ",
"                                                                                                                                            ",
"                                                                                                                                            ",
"                                                                                                                                            "
};
