/* XPM */
static char *Screen_Shot_2023_02_01_at_10_56_07_AM_removebg_preview__1___1_1675245805[] = {
/* columns rows colors chars-per-pixel */
"70 70 193 2 ",
"   c None",
".  c #1B1B1B",
"X  c #211C1B",
"o  c #291D1C",
"O  c #321E1C",
"+  c #381F1D",
"@  c #22201F",
"#  c #33211F",
"$  c #3C211F",
"%  c #201F20",
"&  c #1F2020",
"*  c #232323",
"=  c #292624",
"-  c #272829",
";  c #2B2A2A",
":  c #342422",
">  c #3C2321",
",  c #3D2927",
"<  c #332B29",
"1  c #34312F",
"2  c #2E3236",
"3  c #343434",
"4  c #393735",
"5  c #3C3C3C",
"6  c #393836",
"7  c #4F221F",
"8  c #41221F",
"9  c #55231F",
"0  c #422624",
"q  c #442B28",
"w  c #492927",
"e  c #522522",
"r  c #5D2622",
"t  c #5F2823",
"y  c #572C29",
"u  c #43302E",
"i  c #413E3D",
"p  c #473836",
"a  c #523735",
"s  c #602A25",
"d  c #642E29",
"f  c #692C27",
"g  c #792B25",
"h  c #732E29",
"j  c #782D26",
"k  c #6E332D",
"l  c #67332E",
"z  c #72332D",
"x  c #78342D",
"c  c #703733",
"v  c #623C3C",
"b  c #7D423D",
"n  c #3E4347",
"m  c #454545",
"M  c #494643",
"N  c #4B4845",
"B  c #434548",
"V  c #4C4C4C",
"C  c #494748",
"Z  c #5C4644",
"A  c #5A4844",
"S  c #544544",
"D  c #5E504D",
"F  c #4C4F51",
"G  c #4F5050",
"H  c #525252",
"J  c #585757",
"K  c #5B5858",
"L  c #654D4A",
"P  c #674645",
"I  c #7C4640",
"U  c #754743",
"Y  c #725351",
"T  c #6D5552",
"R  c #5D5E61",
"E  c #646464",
"W  c #6E6E6D",
"Q  c #686767",
"!  c #6F706F",
"~  c #71706E",
"^  c #7C706F",
"/  c #717171",
"(  c #787676",
")  c #83332B",
"_  c #8D332A",
"`  c #92352C",
"'  c #9A352C",
"]  c #893D36",
"[  c #9E3C33",
"{  c #933E38",
"}  c #832F28",
"|  c #A5362D",
" . c #AB382E",
".. c #B63A2F",
"X. c #A53C33",
"o. c #AB3B32",
"O. c #B33C31",
"+. c #BB3C31",
"@. c #C13D32",
"#. c #87433D",
"$. c #98423B",
"%. c #A24037",
"&. c #C74236",
"*. c #CE4237",
"=. c #D44336",
"-. c #DA4537",
";. c #DA4538",
":. c #D64438",
">. c #E44637",
",. c #E44739",
"<. c #E94738",
"1. c #E94839",
"2. c #804540",
"3. c #815A58",
"4. c #817B6F",
"5. c #EA4E40",
"6. c #EA5245",
"7. c #EA5449",
"8. c #EB594C",
"9. c #EB5D52",
"0. c #ED6657",
"q. c #EC655A",
"w. c #EC695F",
"e. c #DB7D6B",
"r. c #EC6B62",
"t. c #E56E60",
"y. c #ED746C",
"u. c #EE7D75",
"i. c #D88776",
"p. c #EF807A",
"a. c #F1867E",
"s. c #8F8F90",
"d. c #939394",
"f. c #9B9594",
"g. c #858484",
"h. c #AE9A83",
"j. c #BDA28B",
"k. c #A5A5A5",
"l. c #ABABAC",
"z. c #AFA8A6",
"x. c #B5A7A8",
"c. c #B9B9BA",
"v. c #DA9F9D",
"b. c #EF8680",
"n. c #EC8C85",
"m. c #EC8F8A",
"M. c #F18B84",
"N. c #F18F89",
"B. c #F1908A",
"V. c #F29D8D",
"C. c #F29B94",
"Z. c #F39F9B",
"A. c #F29691",
"S. c #EF9995",
"D. c #D2A09E",
"F. c #F4A49C",
"G. c #F3A095",
"H. c #CEAEA6",
"J. c #CCB9B5",
"K. c #E8ABA3",
"L. c #F2AAA6",
"P. c #F5B3AF",
"I. c #F6B8B4",
"U. c #F0B7B1",
"Y. c #F7C2BB",
"T. c #F8C1BC",
"R. c #F9CDBF",
"E. c #C6C6C6",
"W. c #CACACA",
"Q. c #D3D3D3",
"!. c #DADADA",
"~. c #F8CBC5",
"^. c #F7C9C3",
"/. c #F9D1CF",
"(. c #E2D7D5",
"). c #F3D4D3",
"_. c #F9D2D1",
"`. c #FADCDB",
"'. c #EEE0DF",
"]. c #FAE0DF",
"[. c #E2E2E3",
"{. c #EDEEEE",
"}. c #EDE4E3",
"|. c #FBE4E3",
" X c #FDECEA",
".X c #F4E2E2",
"XX c #FCF3E7",
"oX c #FCF3EB",
"OX c #EEF0F0",
"+X c #F1F1F2",
"@X c #FEF6F5",
"#X c #FDFAF5",
"$X c #FFFEFE",
/* pixels */
"                                                                                                                                            ",
"                                                                                                                                            ",
"                                                                                                                                            ",
"                                                                                                                                            ",
"                                                                                                                                            ",
"                                            H 3 3 3 3 1 1 3 1 3 3 3 3 1 3 3 3 3 1 3 3 3 3 3 6 H                                             ",
"                                            i X . X X X . X X . . X X X X X . X X X X X X . % M                                             ",
"                                            I h h h h h h h h h h h h h h h h h h h h h h h h I 3.                                          ",
"                                4 1 4 4 2 p [ *.:.@.*.*.:.@.:.@.=.*.*.*.*.*.*.*.*.*.*.*.@.:.*.O.c 6 6 6 1 5 R                               ",
"                                2 % % % & + X.<.5.1.1.1.1.1.1.<.<.<.,.<.,.<.,.,.1.,.1.1.<.>.,.+.f % X X % - F                               ",
"                              ^ i q q q 0 f +.1.<.<.1.1.1.1.1.1.1.<.<.<.1.1.1.1.1.1.1.1.1.1.>.@.g $ q q , q D                               ",
"                          m S I X.o.o.O.o.+.-.1.1.1.1.1.1.1.1.1.1.1.1.<.1.1.1.1.1.1.1.1.1.1.1.-.+. .%.o.o.%.$.Z C                           ",
"                        5 . O j ,.1.1.1.1.1.1.1.1.1.1.1.1.1.1.1.1.1.1.1.1.1.1.1.1.1.1.1.1.1.1.1.1.1.1.1.1.;.o.: * H                         ",
"                        5 . O g @.1.1.1.<.1.1.1.1.1.1.<.1.1.1.1.1.1.<.1.1.1.1.<.1.1.1.1.1.1.1.1.1.1.1.1.1.,.o.$ . H                         ",
"                        6 . O g ;.1.1.1.1.1.1.1.1.1.1.1.1.1.1.1.1.1.1.1.1.1.1.1.1.1.1.1.1.1.1.1.1.1.1.1.<.;.o.$ & J                         ",
"                        6 . o g @.1.1.1.1.1.1.<.<.<.<.<.1.1.1.1.1.1.1.1.1.1.1.1.1.1.1.1.1.1.<.<.1.1.1.1.<.>.X.: & G                         ",
"                        i X # g =.1.1.1.1.1.1.6.5.1.5.5.5.6.5.1.1.1.1.1.1.1.1.1.1.1.1.5.5.5.5.5.5.5.1.5.<.;.o.0 % H                         ",
"                        #.) _ ..>.<.1.1.1.8.M.F.F.L.F.F.F.F.C.u.8.1.1.1.1.1.1.1.5.r.N.L.F.F.F.F.F.F.C.r.5.,.@.` ) 2.Y                       ",
"                  H - : X.>.>.>.>.1.1.1.1.9.T.#X#X#X#X#X#X$X XP.r.,.1.1.1.1.1.1.7.N._.#X#X#X#X$X#X$X|.M.6.<.<.1.>.| e % 3                   ",
"                  V X o o.1.1.1.1.1.1.1.1.q.^.$X$X#XOXOXOXOX}.K.r.6.7.1.1.1.5.7.8.C.`.$X$X+XOX+X{.OX`.N.9.7.5.1.<.| e . ;                   ",
"                  G & o o.1.1.1.1.1.7.q.y.A.`.$XOXW.l.k.l.l.z.j.e.u.u.7.1.1.r.b.u.Y.oX$X{.c.k.l.l.l.x.v.S.b.q.1.>.| 7 X ;                   ",
"                  V X @ o.1.1.1.1.1.a.^.~.`.@X$X!.g.G M V V H 4.H.).I.q.1.5.N._._. X#X$XQ.E B B V B J x.).).K.9.>.| 7 . ;                   ",
"                  G . o O.<.1.1.1.1.G.#X$X$X$X$XQ.E & . . . - E W.$X/.r.5.7.F.@X$X$X$X$XE.5 . . . . ; k.OX#X~.0.>.| e . ;                   ",
"                  V X @ O.1.1.1.1.1.V.XX$X$X$X$XQ.! - . . . * E W.$X/.r.5.7.Z.@X$X$X$X$XE.3 . . . . 2 k.OX#X~.0.>.| e X ;                   ",
"                  V & o o.1.1.1.1.1.V.XX$X$X$X$XQ.! ; . . . & E W.$X/.r.5.7.Z.@X$X$X$X$XE.5 . . . . ; k.+X#XR.0.>.| 7 . =                   ",
"                  V . o ..<.1.1.1.1.V.XX$X$X$X$XQ./ ; . . . * E W.$X/.r.5.7.Z.@X$X$X$X$XE.5 . . . . 3 k.+X#XR.0.>.| 7 X ;                   ",
"                  V & o o.<.1.1.1.1.V.XX$X$X$X$XQ.W ; . . . = E W.$X_.r.5.7.Z.@X$X$X$X$XE.5 . . . . 1 k.+X#XR.0.>.| 7 X ;                   ",
"                  V & o o.1.1.1.1.1.V.XX$X$X$X$XQ.W - . . . = E E.$X/.r.5.7.Z.@X$X$X$X$XE.5 . . . . 1 k.OX#XR.0.>.| 7 X ;                   ",
"                  V & o o.1.1.1.1.1.C.oX$X$X$X$XQ.Q ; . . . @ E W.$X/.r.5.7.Z.@X$X$X$X$XE.5 . . . . ; k.+X@X~.0.>.| 7 . ;                   ",
"                  V . o o.1.1.1.1.1.n.).|. X#X$XQ.( 5 3 3 3 i ~ J.|.T.r.1.5.A.].|.@X$X$XW.H 1 3 1 2 C k.'..XU.q.>.| 7 X ;                   ",
"                  V . o ..1.1.1.1.1.q.y.u.L.|.$X{.c.d.s.d.d.d.h.i.m.N.7.1.5.y.S.n.~.@X$X[.k.d.d.d.s.f.v.L.S.y.5.>.| 7 X ;                   ",
"                  V & o o.1.1.1.1.1.1.5.6.r.~.$X#X{.[.[.[.[.!.K.t.8.8.5.1.1.7.9.9.Z.|.$X@X{.[.[.[.[.!.n.q.9.5.1.<.| 7 . ;                   ",
"                  V X o  .1.1.1.1.1.1.1.1.8.^.$X$X$X$X$X$X$X@XP.r.1.1.1.1.1.1.<.6.N.`.$X$X$X$X$X$X$X Xa.5.1.1.1.1.| 7 . ;                   ",
"                  V @ o o.1.1.1.1.1.1.1.1.8.C.T.T.T.T.T.T.I.I.n.9.1.1.1.1.1.1.1.6.y.L.I.T.T.T.T.T.T.P.y.1.1.1.1.,.| 7 X ;                   ",
"                  V . @ o.1.1.1.1.1.1.1.1.1.6.8.8.8.8.8.8.8.7.6.5.1.<.1.1.1.1.<.1.5.7.8.8.8.8.8.8.8.8.1.1.1.1.1.,.| 7 X ;                   ",
"                  V @ O O.1.1.1.1.1.1.1.1.1.<.<.1.1.1.1.1.1.<.<.1.1.1.1.1.1.1.1.1.1.1.1.1.1.1.<.1.1.1.1.1.1.1.1.,.| 9 X <                   ",
"                  P e r +.1.1.1.1.1.1.1.1.<.1.1.1.1.1.1.1.1.1.1.1.1.1.1.1.1.1.1.1.1.1.1.1.1.1.1.1.1.1.1.1.1.1.1.<...j e y                   ",
"              C P #.|  .=.<.1.1.1.1.1.1.1.1.1.1.1.1.1.1.1.<.1.1.1.<.1.1.1.1.1.1.1.1.1.1.1.1.1.,.1.1.1.1.1.1.1.1.<.=.+. .X.U V K             ",
"            - & t O.,.1.1.1.1.1.1.1.1.1.1.1.1.1.1.1.1.1.1.1.1.1.1.1.1.1.1.1.<.1.1.1.1.1.1.1.<.1.1.1.1.1.1.1.1.1.<.1.1.,.*.d & 6 W           ",
"            * . t ..,.1.1.1.1.1.1.1.1.1.1.1.1.1.1.1.1.1.1.1.1.1.1.1.1.1.1.1.1.1.1.1.1.1.1.1.1.<.1.1.1.1.1.1.1.1.1.1.1.1.:.t . 3 /           ",
"            * . r ..<.1.1.1.1.1.1.1.1.1.1.1.1.1.1.1.1.1.1.<.1.1.1.1.1.1.1.1.1.1.1.1.1.1.<.1.<.1.1.1.1.1.1.1.1.1.1.1.1.1.=.s . 4 /           ",
"            * . s ..<.1.1.1.1.1.1.1.1.1.1.1.1.1.1.1.1.1.1.1.<.1.1.1.<.1.1.1.1.1.1.1.1.1.1.<.1.<.<.1.1.1.1.1.1.1.<.1.1.1.=.s . 4 /           ",
"            & . t ..,.1.1.1.<.1.1.1.1.1.1.1.1.1.<.1.1.1.1.1.1.1.1.<.1.1.1.1.1.1.1.1.1.1.<.1.1.1.1.1.1.1.1.1.1.1.1.1.1.1.:.t . 3 /           ",
"            * . r O.,.<.1.1.1.1.1.1.1.1.1.1.1.1.1.1.1.1.1.1.1.1.<.1.<.1.1.1.1.1.1.1.1.1.1.1.1.1.1.1.1.1.1.1.1.1.1.1.1.1.:.t . 6 /           ",
"            * . r ..<.<.1.1.1.1.1.1.1.1.1.1.1.1.<.1.1.1.1.1.1.1.1.,.1.1.1.1.1.1.1.1.1.1.1.1.1.1.1.1.1.1.1.1.1.1.1.1.1.1.:.t . 6 /           ",
"            * . s ..<.<.1.1.1.1.1.1.1.1.1.1.1.1.1.1.1.1.1.1.1.1.1.1.1.1.1.1.1.1.1.1.1.1.1.1.1.1.1.1.<.1.1.1.1.1.1.1.1.1.*.t . 6 W           ",
"            . . r O.,.1.<.1.1.1.1.1.1.1.1.1.1.1.1.1.1.1.1.1.1.1.1.1.1.1.1.1.1.1.1.1.1.1.1.1.<.1.1.1.1.1.1.1.1.1.1.1.1.1.:.s . 6 /           ",
"            * . r ..<.<.1.<.1.1.1.1.1.1.1.1.1.1.1.1.1.1.1.1.1.1.1.1.1.1.1.1.1.1.1.1.<.1.1.1.1.1.1.1.1.1.1.1.1.1.1.1.1.1.:.y . 3 W           ",
"            * . r ..<.1.1.1.1.1.1.1.1.1.1.1.1.1.1.1.1.1.1.1.1.1.1.1.1.1.1.1.1.1.1.1.1.1.1.1.1.1.1.<.1.1.1.1.1.1.1.1.1.1.=.s . 4 W           ",
"            * . r ..,.1.1.1.1.1.1.<.1.1.1.1.1.1.1.1.<.1.1.1.1.1.1.1.1.1.1.1.1.1.1.1.1.1.1.1.1.1.1.1.1.1.1.1.1.1.1.<.1.1.=.t . 4 !           ",
"            . . t ..<.1.1.1.1.1.1.1.1.1.1.1.<.1.1.1.1.1.1.1.1.1.<.1.1.1.1.1.1.1.1.1.<.1.1.1.1.1.<.1.1.1.1.1.<.1.1.1.1.1.=.y . 3 !           ",
"            * . t ..>.1.1.1.1.1.1.1.1.1.1.1.1.1.1.1.1.1.1.1.1.1.1.1.1.1.1.1.1.1.1.1.1.1.1.1.1.1.1.1.1.1.1.1.1.1.1.1.1.1.=.t . 6 ~           ",
"            * . t ..1.1.1.1.1.1.1.1.1.1.1.1.1.1.1.1.1.1.<.1.1.1.1.1.1.1.1.1.1.1.1.1.1.1.1.1.1.1.1.1.1.1.1.1.1.1.1.1.1.1.-.s . 4 ~           ",
"            * . t ..>.1.>.1.1.1.<.1.1.1.1.1.1.1.1.1.1.1.1.1.1.1.1.1.1.1.1.1.1.1.<.1.1.1.1.1.1.1.1.1.1.1.<.1.1.1.1.1.1.1.=.s . 6 !           ",
"            . . t ..1.1.1.1.1.1.1.1.1.1.1.<.1.1.1.1.1.1.1.1.1.1.1.1.1.1.1.1.1.1.1.1.1.1.1.1.1.1.1.1.1.<.1.1.1.1.1.1.1.1.=.t . 3 W           ",
"            ; ; l o.=.=.,.1.1.1.<.<.<.-.-.;.:.-.=.,.<.1.1.1.1.;.-.-.=.-.-.-.;.<.1.1.1.1.<.;.;.:.-.=.-.,.1.1.1.1.1.<.;.-.&.l - 5             ",
"                  U d x &.1.1.1.1.1.+.) z z z l g O.;.1.1.1.,.+.) d z k z ) ..>.1.,.1.1.*.) z z k l h O.,.1.1.1.<.+.} f c                   ",
"                  m . : o.1.1.1.1.1.' : = * * . 0 ' -.1.1.1.-.| e X @ * * $ _ ;.1.<.1.1.+.q * * * & # ' ;.1.1.1.>.| e X <                   ",
"                  m * , X.,.,.,.,.;.) = * = = * 0 ' :.,.,.;.=.| w * * - * - x =.,.,.;.,.O.q - * = = < ` *.,.,.;.-.| e * 3                   ",
"                    i A $.o.o.X.o.O.2.N B C N C Z { X.o.o.o.o.$.P m N M n C 2.X.o.o.o.o.$.Z n B N N S ] [ o.o.o.X.] v m                     ",
"                        a > > + > 0               T w > $ $ q L               q > > $ $ a               q > $ > , L                         ",
"                          % * % . *               J ; * & & ; V               - . * . * 5               ; * % X * V                         ",
"                          V V G F V                 H H H H H                 G V H V V                 J H V V V                           ",
"                                                                                                                                            ",
"                                                                                                                                            ",
"                                                                                                                                            ",
"                                                                                                                                            ",
"                                                                                                                                            ",
"                                                                                                                                            ",
"                                                                                                                                            "
};
