/* XPM */
static char *_e95aa13a2e64ffdcedd4924976decb9RPBxeiP8Q1k7CkIt[] = {
/* columns rows colors chars-per-pixel */
"70 70 155 2 ",
"   c #0B1D64",
".  c #071969",
"X  c #0A1D6D",
"o  c #0E226B",
"O  c #102165",
"+  c #12256C",
"@  c #12286F",
"#  c #1C2A6D",
"$  c #0E2271",
"%  c #112573",
"&  c #152A73",
"*  c #192D75",
"=  c #152D7A",
"-  c #1A2E7B",
";  c #1C3077",
":  c #17307D",
">  c #1C327C",
",  c #22357D",
"<  c #28377A",
"1  c #26397F",
"2  c #1D3482",
"3  c #1F3886",
"4  c #1B378B",
"5  c #1D398A",
"6  c #1E3D92",
"7  c #213683",
"8  c #243A84",
"9  c #293C85",
"0  c #243C8A",
"q  c #2A3E8B",
"w  c #223E91",
"e  c #2E4186",
"r  c #25408E",
"t  c #2B428C",
"y  c #324286",
"u  c #31448D",
"i  c #344A8F",
"p  c #264293",
"a  c #2C4592",
"s  c #2E4897",
"d  c #27459A",
"f  c #2D479A",
"g  c #2D499A",
"h  c #324693",
"j  c #344A94",
"k  c #394E96",
"l  c #314798",
"z  c #344D9B",
"x  c #394E9B",
"c  c #3D5097",
"v  c #35509D",
"b  c #3B529C",
"n  c #3F599F",
"m  c #354FA3",
"M  c #3652A2",
"N  c #3D55A3",
"B  c #3E59A5",
"V  c #3454AA",
"C  c #3A57A9",
"Z  c #3E5AAB",
"A  c #3E5DB2",
"S  c #3F61B5",
"D  c #404F92",
"F  c #42559D",
"G  c #43599F",
"H  c #4256A3",
"J  c #425AA5",
"K  c #495DA5",
"L  c #4357A8",
"P  c #435DAB",
"I  c #4A5EAB",
"U  c #415EB2",
"Y  c #495FB1",
"T  c #4960A7",
"R  c #4661AD",
"E  c #4B62AC",
"W  c #4968AF",
"Q  c #5166AD",
"!  c #5469AF",
"~  c #5D6CAF",
"^  c #4562B4",
"/  c #4B65B4",
"(  c #4D69B5",
")  c #4564BA",
"_  c #4A66B9",
"`  c #4768BD",
"'  c #4D6ABB",
"]  c #5267B4",
"[  c #536BB4",
"{  c #596DB6",
"}  c #536DBC",
"|  c #596FBB",
" . c #4E70BF",
".. c #5670B7",
"X. c #5A71B7",
"o. c #5571BD",
"O. c #5C73BC",
"+. c #5E79BF",
"@. c #6275BD",
"#. c #6279BF",
"$. c #687ABF",
"%. c #4467C0",
"&. c #4967C0",
"*. c #4669C1",
"=. c #4D6DC2",
"-. c #4D6FC8",
";. c #526EC2",
":. c #596FC0",
">. c #516FC8",
",. c #4F70C2",
"<. c #4E70C9",
"1. c #5472C4",
"2. c #5B74C3",
"3. c #5778C6",
"4. c #5D79C5",
"5. c #5474C9",
"6. c #5A76C9",
"7. c #5778CB",
"8. c #5D7ACB",
"9. c #5D7DD1",
"0. c #6177C3",
"q. c #637BC4",
"w. c #6A7DC5",
"e. c #6177C9",
"r. c #637DCB",
"t. c #697ECA",
"y. c #627DD0",
"u. c #5F80D4",
"i. c #6681C7",
"p. c #6980C6",
"a. c #6681CC",
"s. c #6B83CB",
"d. c #6D89CE",
"f. c #7285CD",
"g. c #7389CE",
"h. c #6582D1",
"j. c #6B84D2",
"k. c #6E8AD3",
"l. c #6F87D9",
"z. c #6E89D9",
"x. c #7187D2",
"c. c #738BD4",
"v. c #798DD5",
"b. c #7186D8",
"n. c #748CDA",
"m. c #7A8FDC",
"M. c #7C91D6",
"N. c #7791DE",
"B. c #7C92DB",
"V. c #7C94E2",
"C. c #8096DD",
"Z. c #839ADF",
"A. c #8097E1",
"S. c #859DE1",
"D. c #879FED",
/* pixels */
"O.q.@.$.p.w.w.p.p.p.w.w.w.w.w.w.$.@.@.$.w.w.w.$.@.@.+.@.$.T ! Z.S.M.g.p.p.i.i.i.a.a.j.r.o.O.4.4.q.i.i.r.2.2.0.0.O.O.t.2.q.n.V.j.2.0.0.| 2.t.",
"q.f.O.O.X.O.+.X.O.$.$.q.w.w.w.w.#.+.@.$.$.w.w.p.$.i.i.$.p.G ! S.S.g.p.$.d.i.i.i.r.i.q.4.4.3.4.4.i.r.r.e.e.8.e.2.2.e.t.K I j.j.e.| O.0.:.2.e.",
"G q.#.q.$.q.q.p.q.p.p.i.w.i.w.p.i.i.d.i.p.s.d.d.p.d.d.d.p.K W B.M.g.d.d.k.k.h.d.h.a.s.r.w.r.r.r.q.r.q.e.r.q.2.2.2.e.e./ x e.j.2.X.2.4.3.2.8.",
"i X.q.p.p.p.p.p.s.p.d.p.a.s.i.p.d.d.d.k.f.k.d.d.p.f.g.p.i.G ! M.d.p.p.p.d.d.h.a.i.r.w.r.i.a.i.8.4.4.4.4.e.2.| | 2.| e./ x q.j.2.3.O.4.2.2.4.",
"e [ f.s.s.s.s.s.p.d.d.d.d.d.d.k.c.c.k.k.k.d.g.d.f.p.d.p.p.K T v.g.p.p.p.i.r.r.i.a.a.j.j.j.j.a.a.i.t.r.r.r.q.2.2.2.2.8.I p 2.j.r.q.2.3.2.2.e.",
"9 W p.p.p.p.f.p.p.d.i.d.d.d.d.d.d.d.d.d.d.a.d.s.p.p.p.p.p.T T i.p.q.p.q.i.i.a.a.i.s.a.a.a.s.a.t.t.r.r.e.e.t.e.q.0.2.:.P 8 L r.e.e.0.q.q.e.0.",
"9 X.p.p.s.s.p.s.d.s.s.s.d.p.d.i.p.g.s.d.d.p.s.p.p.i.$.p.p.T e T W @.q.$.q.q.r.r.e.r.t.r.a.a.r.q.8.r.r.t.2.2.e.2.| 2.2.N 2 N | o.| :.e.e.2.[ ",
"9 W #.p.w.#.#.O.X.X.X.X.X.X.X.O.O.X.X.X.X.X.{ { ~ ..+.+.T e 3 T ! X.T J / [ [ | ( | | [ 0.O.( E / [ | ( / I P H N L P 0 - L 2.I x m x l q q ",
"; J K G n b i u e 9 9 e 9 , > 9 9 9 9 7 1 , , , 8 e t 9 9 c J X.q.T b e j a 9 l j r t p 0 8 - 8 0 7 7 - = = = = = % % $ 2 / ] f $ $ $ X X $ ",
"> n e @ @ @ @ @ @ o + * > 1 9 i c G F K I Q ] { ..[ E E i.B.x.v.M.d.t.d.q.2.2.t.r.q.0.O.N 9 0 N K J J J I L P I P I Y I [ r.e.Y P P I Y ] ] ",
"#.s.+.T E ! [ X.+.q.f.g.f.f.v.f.v.C.M.M.v.v.v.B.B.c.j.x.d.q.O.O.s.c.B.s.@.t.x.j.t.c.a.s.K ^ j.j.j.r.2.2.3.2.2.| :.3.2.2.0.2.[ ] } 2.2.q.e.2.",
"$.i.q.q.#.#.#.+.O.#.$.i.w.s.f.] ..i.+.O.{ @.#.0.q.q.O.X.[ ] [ ] 0.q.q.O.O.0.0.2.e.2.2.t.N x x.j.x.a.e.2.2.e.r.t.t.r.t.8.2.2.e.y.r.8.a.a.t.e.",
"O.+.X.+.+.+.O.O.O.O.4.i.4.i.i.+.4.4.O...X.3.q.4.X.O.2.2.2.4.q.q.0.q.r.r.q.s.t.0.e.q.t.j.L p e.c.j.j.t.t.a.j.a.j.j.t.t.y.t.r.e.8.a.u.3.3.3.3.",
"+.4.O.#.3.i.q.q.i.i.d.a.i.a.i.( ..i.i.i.i.i.s.t.a.t.4.2.t.j.j.j.j.t.h.t.r.j.y.e.r.t.j.r.N t r.n.j.j.j.j.j.h.a.e.r.y.y.y.y.r.e.8.9.4.3.3.4.8.",
"3.+.4.i.i.i.a.a.i.d.j.r.r.s.4.B ( s.r.j.a.i.a.r.h.y.e.a.z.z.z.z.j.j.h.j.j.j.r.r.h.l.j.r.Z 0 8.h.r.h.h.h.a.8.8.4.8.y.y.y.6.9.9.8.6.3.5.8.h.a.",
"i.4.i.i.a.i.a.i.i.i.i.i.s.d.4.T o.s.q.r.s.s.a.r.r.4.r.z.h.r.h.j.h.h.l.j.r.y.r.r.j.j.e.e.^ q | 4.8.t.a.r.r.8.4.6.2.6.6.6.6.6.6.6.1.1.8.h.h.8.",
"i.i.s.s.p.p.s.s.w.w.r.s.s.O.J u W s.q.q.s.t.q.a.j.r.t.j.t.y.n.j.3.2.h.r.q.r.j.j.j.a.e.t.^ p 2.l.j.r.r.r.e.8.2.2.2.8.e.4.6.3.2.8.r.h.h.a.y.r.",
"p.i.p.w.q.$.p.p.w.w.q.0.O.E a 8 E w.s.d.p.0.2.q.r.4.r.a.r.t.a.4.] [ 2.2.} E } 2.2.O.2.o.x 8 ..k.r.2.| } } _ / / / / ( / / / ( | 3.| ( } | } ",
"] ! ~ { { ! ! T K Q T K [ E c t W T E E G k b H h h x x x z h t 9 t r 9 > & = > 8 0 0 8 & > L R a t p 0 w 0 7 2 2 2 2 7 2 > = > 0 3 2 2 2 0 ",
", , , ; , * & # + & - * , * $ e E e * &   o - ; & 8 t 9 t h 9 9 z H c j j x b b z a a j j E O.{ J x z m l m l h h h a 8 8 e u z N z l z l l ",
"< 9 D h k D F F F K Q I E T E q.c.+.] E T / { q.q.x.v.v.m.v.q.j.B.C.m.x.j.B.V.B.c.t.e.2.j.n.j.f.B.j.e.e.e.e.2.0.2.2.{ Q W q.g.s.a.q.2.2.2.| ",
"{ @.t.v.v.C.v.v.g.x.v.c.c.c.c.d.x.c.c.c.c.c.v.v.v.s.j.x.x.q.{ v.d.0.w.q.0.B.j.s.i.q.2.O.4.t.2.e.t.e.2.2.:.2.} :.[ [ 2.X.K i.v.+.r.e.| ' ( } ",
"F K w.w.w.w.w.w.w.q.4.4.q.0.4.4.q.q.q.q.q.q.e.i.q.e.q.q.e.{ L s.r.O.0.O.e.a.8.:.2.| 2.3.2.2.3.2.2.2.2.:.:.2.} :.| } 2.2.R O.+.O.4.3.1.' ' } ",
"7 x 0.0.0.0.w.0.q.2.o.O.2.4.4.a.r.4.e.r.8.r.r.j.j.t.j.j.a.o.N t.s.e.e.2.e.2.1.8.4.3.1.2.2.6.:.:.1.1.1.| :.5.| 1.:.| o./ z o.4.3.6.3.1.;.;.:.",
"2 l 0.r.r.q.e.q.2.4.r.r.i.8.u.8.8.a.8.a.a.a.a.z.h.a.h.j.y.} p 2.e.2.e.e.t.8.1.8.y.y.6.:.>.1.1.6.1.3.1.} o.3.:.3.1.} =._ M 8.8.1.8.5.1.=.=.=.",
"7 l 8.e.2.2.2.3.e.r.u.8.8.a.8.a.a.h.h.h.h.h.h.h.a.8.r.r.r.} p } 2.3.e.e.8.8.5.8.9.y.8.y.8.6.5.6.5.1.o.( ' } } 1.1.1.:.:._ y.8.>.<.1.,.5.3.5.",
"p v 1.2.1.1.2.8.i.8.8.8.i.8.u.a.h.a.h.h.h.h.h.r.8.4.8.4.4.' d } r.3.2.8.3.5.1.5.6.6.6.5.5.6.5.>.1.1.' R E ( ] } } ;.1.' Y y.y.>.5.5.7.8.5.6.",
"r g } 4.6.2.e.r.4.3.4.i.4.4.4.a.a.a.a.3.3.q.4.s.r.2.e.h.r.] a ] r.:.} 8.2.:.:.2.2.e.:.:.:.} ] / / ( K N b x k L I I P z Y e.0.:.2.1.1.4.3.} ",
"p v } 2.| :.e.0.:.| { { ..( ] ....[ ] T b W X.2.| } | | E z 7 b I N H I Y L L I Y L H H F l l q q q 2 - - - ; - - - % % q I L L R R R R P B ",
"2 b [ J h j k q 7 8 9 7 9 > > 9 3 > 8 & @ 8 8 > , 7 , - % o + 9 q * + %   .   $ $ $ $ % X . $ $ % 2 7 7 0 a h h h t 9 h L I h 7 2 8 3 = : 0 ",
"J #.p.Q u u k k b F k x v h j H r & 8 t c ] / H G H F D c c F X.t.{ H D m L L L Y Y Y Y H q q m } r.b.b.j.j.j.z.n.j.l.n.V.A.x.| / } } ' O.4.",
"g.M.v.c.w.f.v.f.f.x.b.m.B.j.t.e.b a | n.n.n.v.v.v.f.w.@.q.f.C.C.v.C.v.v.m.n.n.N.n.n.b.y.y.b.6.N.D.V.j.t.h.a.h.a.h.e.4.h.h.a.e.3.3.3.8.h.h.h.",
"! ! E W [ ....! { X.O.e.y.8.2.| L Y l.b.r.2.2.e.q.q.0.4.q.t.f.j.f.t.q.0.e.4.y.r.e.y.6.>.;.6.' l.y.9.:.&.,.1. .' _ W  . ...' ^ _ ,. . .' ' ( ",
"! ! W W ........} o.} ' 2.:.:.8.^ _ z.h.e.6.2.4.e.8.q.r.a.a.j.h.e.t.h.h.j.r.y.y.8.6.:.:.:.' l :.:.:.3.1.5.,.' _ ^ ` 1. .,.,. .,.1.,. . .' _ ",
"o.+.o.o.+.o. .( o.3.2.1.:.;.1.' M Y h.4.r.6.4.8.8.8.6.6.9.y.8.7.8.9.h.h.h.y.y.8.r.8.8.8.8._ f ;.8.1.5.7.1.,.' _ ) `  . . .,.,.3.1.1. . .' ' ",
"( ` ` ( '  .W  .1.3.1.1.1.' ' } M M 8.8.6.6.5.9.9.9.9.9.9.u.7.5.7.7.9.9.9.9.e.8.6.1.:.;.:.' m 6.8.3.1.1.1.1.=.' _ W ` ` '  .,. .' 1.1._ ' ' ",
"^ ` ` ' ,. .'  . . . . .] ' } ;.C M 7.8.3.6.4.9.9.8.9.9.9.9.7.7.7.9.9.u.9.6.2.;.} | :.:.3._ 0 } r.6.;.' ;.;.} ' / _ ' ' ' ' ,. .'  ._ ( ' ' ",
"..W E  .o.(  .( ( ' ( ( _ _ } ;.M v 2.3.2.2.4.6.8.8.8.7.8.8.8.8.8.8.8.8.4.8.2.:.1.2.3.8.2.P 5 } 4.:.} ;.:.1.>.' ' ' ;.' ' 1.} } o.2.o.( ( ( ",
"N E ..( ( E } ..W ] ( P I ] | I 0 z | | 2.0.2.o.| O.1.2.O.o.O.o.3.2.2.O.2.1.} [ ( ( ' } E a r | } ( } } ' } ' ' _ _ _ / ( / _ _ ( } ( E I R ",
"9 u e u u t c c u j q 7 9 l q 2 % 7 x h h q q t h j k j j i z k z h i h h q 0 - = ; 2 8 = $ 0 R z a h a 0 7 2 2 7 7 2 2 2 2 : - : : = = 2 2 ",
"9 9 < < , # 7 7 * - 7 9 q q 8 2 7 h I K h 9 < 9 e t y e e > @ * * ; ; ; * ; = * ; > r 8 r t v P x t 0 0 0 0 t l N h a 7 - 0 t t s v z z v N ",
"$.~ @.0.@.~ { { | 2.w.f.C.C.v.x.f.v.B.v.f.t.x.v.B.c.f.c.s.X.c T @.O.@.@.O.i.i.i.i.d.d.d.i.j.B.B.n.j.r.y.y.r.a.j.b.e.| N x q.c.s.h.j.a.a.r.j.",
"F I w.C.v.t.t.t.n.j.w.q.{ O.e.t.t.e.0.2.2.e.t.t.w.q.2.e.O.R z a.B.k.d.c.c.k.d.d.d.i.i.i.2.2.8.8.y.8.8.8.6.1.1.} | ^ L t N a.t.| _ ' ' ` ) ` ",
"8 H | :.] ] &.:.' 1.} } ] Y ] | ] / } :.2.2.2.:.1.| ' ;.( N r 2.3.1.3.4... .' ( S R S ^ _ ) ) ` ' =.=.' _ ` =.' ' ) ^ 8 a 4.r._ ) ` ` S ^ ` ",
"w Z } ] &.} _ ;.' >.1.5.5.5.1.5.,.,.1.=.;.1.1.<.6.>.>.:.=.V d 6.1.5.;.&._ _ ` ) S ` ^ S S ) ) ) ) %.*.*.*.-.-.-._ &.) 4 g 1.' ) ` *.*.) ) *.",
"s Y } } | ;._ =.>.5.>.=.1.-.=.=.5.5.=.1.5.5.5.=.>.&.&.>.-.A V 7.5.5.&.&.&.` ` *.` ` ` *.*.<.-.5.-.-.<.5.<.5.5.<.=.) ) 6 d &.` =.*.-.-.%.%.*.",
"l L ] / ' ] _ _ ' ;.` ' =.=.=.1.7.5.=.>.5.1.=.=.>.>.>.>.>.U A 9.5.>.;.>.5.>.=.1.<.<.1.=.<.5.5.5.-.5.7.7.7.7.5.=.=.` A 4 w =.' ` %.&.%.) ) %.",
"h h k h I | ] { } ' ( ' ' ' } =.' ' } ' 1.3.;.;.:.;.} =.&.L m 8.6.5.6.:.:.5.6.5.3.8.8.3.5.5.1.5.:.6.>.>.o.1.' _ _ / U 5 0 Z I ' _ ' ;._ ) _ ",
"u < # O y K Q { { E E { } ( E { [ ] | [ } | ..} } } } ] ] x m e.| _ ] | 2.2.2.2.2.| | } 1.O.2...;.| | ( W ( ( ( E R L 8 0 / ( } ( _ ' _ ^ / ",
", O # < y y e i h i k k z i i z k i h x j j h h h j l x t > H { N h N / P H H N z j a h b n J n x j v c k v c v z h 2 $ x O.H l a s t t 9 u ",
"O # c ~ @.! i 1 > > ; ; * * * & & + +     O , 9 8 9 q h u z ] ..H k K T h q 9 0 8 8 8 8 , > ; > 9 k n B n n J n b a a b :.e.L L L K K N N L ",
"D G $.g.M.M.c.s.q.O.X.{ ! Q K K K k q > & u $.x.c.n.c.m.l.c.N.B.B.m.b.x.j.j.s.j.j.a.s.s.+.! T ..d.d.d.k.h.a.k.k.a.j.l.n.V.N.y.N.z.h.z.z.n.j.",
"X.X.i.p.p.w.q.i.4.q.q.0.0.t.t.t.t.O.x.x.s.B.B.b.h.4.r.8.[ ( } o.3.o.} ( } ' } } 1.O.1.2.....i.i.i.O. . ...'  .' &.&.&.>.6.>.>.6.1.=.1.1.1.:.",
"L T E R P R ^ ^ ^ ^ I K K ( ( E Y Y t.j.x.x.:.} ' ) ' ` ^ ` _ ' _ ' ' _ ' _ _ _ ( _ ( ( o. .C r W (  .W W ) ` ` Y &.U A &.&.U U ) S A ^ ) ^ ",
"R ^ ^ R R ( _ W ) ( ' / _ ( / / L V ;.:.6._ ' >.1.' ;.=.' ' 1.=.' ;.=.' ' =.' ' ` ( ` _ ' ' s 5  .( ) S S ` ` ` &.U U %.&.) ) &.` C V A ) A ",
") W ^ ^ ^ ( _ _ ^ _ _ ^ ( ' ' _ C C =.;.;._ &.' _ ) _ _ ` _ ` ' =.;.=.' ;.=.` ' =.) ) ' ' ) p 4  .) ^ ^ ) ` ) ^ &.U U U U ) ) ) ) ) ` _ =.` ",
"R ^ R R ^ ( ( ( / R ^ ( ' ( ' ' C U ;.' _ ' ' ' ' ' ' ' ' ' } ;.:.5.;.;.=.' _ ;.1.' _ =.1.) p p ;._ _ _ U ) ) ^ U U Y A A _ &.&._ ` _ ` _ ) ",
"R R R P R R ^ R R / ( ..( R ' ( z Z _ _ / ' ' ' ;.' ;.} =.} ' ' } ;.} } ' ( ' ' ' ' o.' / / p p _ / =.' ;.' _ ' &.&.;._ Y &.' ' ) ) ( ) _ ' ",
"R R R R R P T R W ( ( ( W R E B 0 z E ^ ^ } } ' _ ] ] ' ] ' ( ( ' ' ( _ _ ' } ^ _ } } ' / K 5 s } Y / _ ' ' ' } :.;._ _ ' _ Y ' ) / ^ _ / ^ ",
"T P T P K P P R T E T T c t 3 > q I } N N L N L L L C L L H N N H L H N N L L K R L B N N d 2 M } C L C L ] ( / L Y N m z z L P P U I ^ R ^ ",
"> > 8 8 8 8 8 9 r e 1 8 > @ & a b P J 8 2 - 2 : - - - 2 - - : 2 2 8 8 3 3 2 3 p p > - 2 2 = t ( E N b l v R N a j s 8 : % 2 z z g z z s s l ",
"@ & > > e z c G T E T T E ! X.i.p.q.q.X.( E E E I L H H b x t t j N E E E E L v d j R } } 2.r.a.4.1.o./ N v s p l d 2 = 7 a s p 0 5 4 : 2 3 ",
"F P ..p.d.f.f.s.s.i.i.d.d.c.M.c.x.c.n.B.n.b.c.n.c.k.j.x.d.q.} s.V.C.B.N.c.l.k.l.n.V.n.c.n.z.k.j.l.N.c.j.n.N.c.l.j.4.4.' ( r.h.y.a.8.1.1.1.2.",
"O.X.X...E T T E K n n n T T B T B B P K I / R R L B L I P N v O.x.r.} ( E R ( o.4.3.} / / _ / / ( } ' } q.r.3.} ( ( ( b N a.j.e.1.1.2.2.2.o.",
"] K E n n n P T J B T n n T T W W T R R R P P R B B R T B M a R  .E W P N B C Z Z Z R ^ _ / ^ ^ P P R R / ^ R R R R A g v i. .Z R ) ) ) ^ Z ",
"z t J B B J J B B B n B T Z W W W R R Z P Z Z R R B B B B v r Z ..R R Z B A C C Z ^ C ^ _ Y Z Z Z ^ _ ) R Z ^ ^ R Z R g M 1.^ Z Z A ^ ^ ^ C ",
"b r n N J J b B B T B T S W W Z Z R B Z C Z P Z B B B Z Z v r R ..A Z P Z Z Z Z Z Z A ^ U U U ) ) ^ ^ ^ Z Z Z A A ^ ^ g m _ Z Z S S ^ ^ S Z ",
"b t z i b P T P n B R Z B B n Z R R Z B C C B C C M Z A S B r A ( A R ) A Z S ^ ^ ^ ) ) ) U ^ _ _ A Z P ^ R R Z Z R Z g g ^ Z Z S S S Z A A ",
"u 1 i e c T T J P B L P P I P L P L H N L U L Z B Z Z R R Z s Z / B P R R A ^ ` ` ` ^ ^ ' ^ U U U Z P K R R R P L B P s s R L L P U P A A Z ",
"< * e i k n G c n b v N P L L B J P P P Y Y ^ I R K R Z B N a T R B B L Z ^ ' _ _ ^ / / / ^ Y Z Z P P J R R P P P L B t r K R P P P Z P ^ ^ "
};
